<svg xmlns="http://www.w3.org/2000/svg" viewBox="0 0 73.09 212.86"><defs><style>.cls-1{fill:#333;}</style></defs><title>Recurso 1</title><g id="Capa_2" data-name="Capa 2"><g id="OBJECTS"><path class="cls-1" d="M24,88.84l0-.08h0Z"/><path class="cls-1" d="M.44,48.77h0v0Z"/><path class="cls-1" d="M35.16,42.63v0Z"/><path class="cls-1" d="M5.71,98.14l0,0h0Z"/><polygon class="cls-1" points="59.52 42.52 59.52 42.52 59.52 42.52 59.52 42.52"/><path class="cls-1" d="M25.59,17.6v0h0Z"/><polygon class="cls-1" points="23.84 56.26 23.84 56.26 23.84 56.26 23.84 56.26 23.84 56.26"/><path class="cls-1" d="M14.9,50.33v0h0Z"/><path class="cls-1" d="M72.89,104.44a4.44,4.44,0,0,0-.65-1.33,5,5,0,0,0-.61-.69,4.92,4.92,0,0,0-.73-.54,4.4,4.4,0,0,0-.52-.3l-.34-.16-.33-.14-.33-.12-.31-.09L68.7,101h0l-.31-.1-.53-.2a3.67,3.67,0,0,1-.48-.26,4.14,4.14,0,0,1-.48-.34,4,4,0,0,1-.43-.4s-.09-.12-.14-.17a.49.49,0,0,0-.14-.18l-.1-.12v0h0a3.12,3.12,0,0,1-.29-.45c-.38-.7-.64-1.46-1-2.17a6.13,6.13,0,0,0-2-2.75,5,5,0,0,0-1.38-.6c-.24-.07-.5-.12-.75-.17a6.87,6.87,0,0,0-.78-.08,3.7,3.7,0,0,0-1.4.22,5,5,0,0,0-1.09.6l-.49.36c-.15.12-.28.24-.42.37s-.52.51-.79.77c-.09.1-.2.19-.3.29-.26.23-.53.46-.81.68a14.16,14.16,0,0,0-1.12.93A6.68,6.68,0,0,0,52,99.38c-.14.34-.28.68-.4,1s-.25.77-.39,1.15c0,.13-.09.26-.14.39l-.09.25c-.08.2-.16.39-.25.59s-.29.61-.44.91-.31.54-.47.8h0v0h0c-.32.5-.64,1-.95,1.49h0c-.34.55-.65,1.12-1,1.67h0v0h0a12,12,0,0,1-.77,1.1L47,109a4.48,4.48,0,0,0-.4-.36l.05,0,.27-.17.08,0,.17-.11a2.73,2.73,0,0,0,.25-.23,1.37,1.37,0,0,1,.17-.17l.18-.2a2.66,2.66,0,0,0,.35-.46c.14-.23.25-.47.37-.71s.12-.26.17-.39l.36-.92a18.8,18.8,0,0,0,.57-1.8c.15-.6.29-1.2.45-1.79,0-.21.11-.42.17-.63a3,3,0,0,0,.1-.32v0c.11-.37.21-.74.32-1.11h0v0h0c0-.16.09-.32.14-.48h0v0h0c.06-.17.11-.35.17-.53l0,0c.08-.24.16-.48.25-.72s.16-.47.23-.7h0l.16-.49c0-.15.07-.31.11-.46s.05-.23.08-.35c.06-.32.12-.65.17-1l.06-.46a4.87,4.87,0,0,0,0-.54c0-.22,0-.44,0-.65a4.72,4.72,0,0,0-.14-.75,3.28,3.28,0,0,0-.24-.54c-.11-.19-.23-.39-.36-.57a4,4,0,0,0-.89-1,3.32,3.32,0,0,0-1.2-.57,2.9,2.9,0,0,0-1.31,0,3.48,3.48,0,0,0-1.16.48c-.17.1-.33.22-.5.31a1.15,1.15,0,0,1-.25.12l-.2.07-.27.05h-.28l-.17,0-.2,0-.29-.11c-.32-.15-.62-.34-.93-.52a5.45,5.45,0,0,0-1.15-.53,4.15,4.15,0,0,0-.61-.14,3.75,3.75,0,0,0-.67,0,4,4,0,0,0-1.23.31l-.4.19-.45.25c-.38.2-.75.41-1.12.62h0c-.53.28-1.06.57-1.6.83-.25.12-.5.24-.74.38l.21-1.36c.09-.5.18-1,.29-1.5s.27-1.09.42-1.62v0l0-.06c.2-.31.4-.61.62-.91s.49-.61.72-.92.46-.63.67-.95l.62-1,.44-.6a11.74,11.74,0,0,1,.89-1l.33-.3.35-.27.49-.33.5-.29q.5-.27,1-.51c.35-.15.71-.3,1-.46l.59-.3.56-.3c.16-.1.32-.2.47-.31s.25-.17.37-.27a4.25,4.25,0,0,0,.55-.57c.25-.32.47-.66.68-1s.42-.68.62-1c.39-.69.73-1.41,1.06-2.13.17-.35.32-.71.47-1.07s.29-.73.41-1.1a9.56,9.56,0,0,0,.3-1.17c.07-.39.13-.79.17-1.19s.08-.81.09-1.22,0-.8,0-1.2-.08-.83-.13-1.24-.11-.73-.18-1.1S50.12,64,50,63.61s-.2-.85-.31-1.28c-.19-.75-.42-1.5-.63-2.25L49,59.63v0l0-.08v0l0-.07v0h0c0-.06,0-.12,0-.18s-.09-.4-.13-.6a4.21,4.21,0,0,1-.09-.49c0-.18-.06-.36-.07-.53l-.06-.54c-.05-.61-.09-1.23-.13-1.85,0-.29,0-.58,0-.87s0-.28,0-.42,0-.15,0-.22a.22.22,0,0,0-.12-.18.08.08,0,0,0-.07,0,.33.33,0,0,0-.1-.06.56.56,0,0,0-.36,0c-.35.13-.71.27-1.05.42a4.11,4.11,0,0,0-.51.27c-.16.1-.31.21-.46.32s-.6.46-.89.7l-.88.71-.93.77c-.61.52-1.24,1-1.87,1.51a12.14,12.14,0,0,0-1,.88,6.5,6.5,0,0,0-.64.75c-.1.13-.2.27-.29.41l-.34.54-.32.56c-.08.17-.17.33-.24.5s-.15.33-.21.5l-.17.44-.15.43L37.5,64c-.09.26-.17.52-.26.78s-.09.25-.14.37-.11.3-.17.44l-.14.3q-.13.28-.3.57a4.67,4.67,0,0,1-.36.51c-.26.32-.54.63-.82.93a4.58,4.58,0,0,0-.56.75c-.1.18-.18.37-.27.56a11,11,0,0,0-.4,1.14l-.06.29-.06.29c0,.2-.06.41-.08.62s0,.35-.05.52,0,.41,0,.62V73c0,.11,0,.21,0,.31s0,.42.06.63a2.07,2.07,0,0,0,0,.22c0,.1,0,.2.05.31s.08.37.13.56c.1.4.21.79.33,1.19.2.68.39,1.36.56,2,0,.18.08.35.11.53a2.13,2.13,0,0,1,0,.25,2.51,2.51,0,0,1,0,.27c.06.77.09,1.54.11,2.31s0,1.65,0,2.47,0,1.43,0,2.14l-.06,1.17,0,.5c0,.12,0,.24,0,.36a1.49,1.49,0,0,0,0,.21.64.64,0,0,0,.08.3.39.39,0,0,0,.23.15h0c0,.24-.11.49-.15.73-.1.57-.17,1.13-.25,1.7,0,.34-.09.68-.13,1l-.29.23c-.2.16-.39.34-.58.51a2.72,2.72,0,0,0-.66,1.52,6.48,6.48,0,0,0-.09.77c0,.25,0,.51,0,.76h0v0h0v0h0a1.48,1.48,0,0,1,0,.21v.08c0,.3,0,.59,0,.89s0,.33,0,.5,0,.33,0,.5c0,.32.08.63.13,1,0,.14.06.29.1.43a.3.3,0,0,0,0,.1v.15h0c0,.23,0,.45,0,.68a4.48,4.48,0,0,0,.06.63q.06.31.15.63l.12.41c-.05.81-.09,1.63-.1,2.44,0,.55,0,1.11,0,1.66v.68c-.17-.26-.35-.51-.52-.76a8.85,8.85,0,0,0-.57-.76c-.08-.1-.17-.18-.25-.27s-.05-.1-.07-.16L31.8,104c-.3-.63-.63-1.25-1-1.87-.12-.62-.21-1.26-.3-1.89-.12-.87-.26-1.74-.36-2.61v0c-.12-1.27-.23-2.54-.29-3.82,0-.67-.05-1.33-.06-2s0-1.35,0-2q.09-2.39.21-4.77c.09-1.62.19-3.23.32-4.85.09-1.08.23-2.15.41-3.23.11-.62.23-1.24.36-1.85s.29-1.3.41-2,.25-1.38.36-2.07a2.89,2.89,0,0,0,0-.29.06.06,0,0,0,0,0c.08-.53.16-1.06.25-1.59v0h0c.52-3.1,1.09-6.2,1.73-9.28l.51-2.37q.28-1.23.54-2.46c.08-.41.15-.82.22-1.23,0-.16,0-.31.07-.47l0-.25c0-.08.08-.15.11-.24s0-.22.08-.33,0-.22.08-.33.12-.42.19-.63.2-.63.32-1,.25-.64.38-1c.27-.59.57-1.16.88-1.73.18-.31.37-.62.55-.94h0L38,47a.15.15,0,0,0,.16-.07,5,5,0,0,0,.27-.51c.06-.14.13-.28.19-.43s.14-.32.2-.48l.2-.28.51-.75.2-.27.38-.43.42-.42c.29-.28.6-.54.9-.81l.83-.76c.58-.53,1.13-1.09,1.69-1.65l.82-.8c.25-.24.5-.48.76-.71a2,2,0,0,0,.33-.08,2.43,2.43,0,0,0,.37-.16l.31-.14.24-.08h.11a3.13,3.13,0,0,1,.53,0,24.26,24.26,0,0,1,2.69.27l.25.06a1.09,1.09,0,0,1,.24.07h0c.2.07.41.13.6.21l.64.27c.48.23,1,.46,1.45.72l.7.38.81.43.66.33.84.42.29.14.38.19c.24.11.49.24.74.34l.34.13.22.08h0l.34.1.32.1.37.09.31.07h.2l.14,0h0l.1,0h.11l.07,0h0a7.15,7.15,0,0,0,1,.08,8.79,8.79,0,0,0,2.37-.24,9.87,9.87,0,0,0,1.15-.32,8.93,8.93,0,0,0,2.06-1.06l.45-.33a4.31,4.31,0,0,0,.4-.32l.34-.31.2-.18.11-.1.3-.31.57-.6,1.17-1.25c.18-.19.35-.39.53-.59l.28-.36a1.83,1.83,0,0,0,.26-.5.58.58,0,0,0,0-.23.46.46,0,0,0-.06-.23.59.59,0,0,0-.15-.2.91.91,0,0,0-.26-.13l-.33-.08-.21-.06L70,35.21,69.21,35l-1.55-.45c-.51-.14-1-.26-1.54-.37L65.45,34l-.63-.16h0l-.48-.16-.42-.17c-.48-.23-.93-.48-1.39-.73l-.72-.37-.42-.18a2.64,2.64,0,0,0-.4-.12,3.1,3.1,0,0,0-.42-.08L60.17,32l-.76-.08c-.62-.06-1.23-.11-1.85-.13a7.65,7.65,0,0,0-1.17.06,6.24,6.24,0,0,0-1.14.24,4.5,4.5,0,0,0-.48.16l-.33.12-.42.18-.13.07-.28.14-.3.17c-.13.07-.26.14-.38.22l-.3.2a2.9,2.9,0,0,0-.29.19h0l0,0-.1.07,0,0-.06,0-.07.06h0l-.06,0,0,0-.1.08,0,0-.06,0h0l-.05,0,0,0-.06,0h0l0,0h0l0,0h0l-.12.1-.29.24-.16.14-.17.15-.39.36-.39.39-.35.34h0l-.1.09-.18,0a11.71,11.71,0,0,0-1.82.68l-.92.4-.82.38c-.3.15-.61.3-.9.47l-.44.28-.22.16-.23.17a13.13,13.13,0,0,0-1.17,1.07h0c-.45.43-.9.85-1.33,1.3-.23.24-.46.48-.68.73s-.44.5-.65.76l-.36.47c.09-.19.17-.39.26-.59l.37-.91c.1-.22.19-.45.3-.68s.21-.49.32-.73l0,0c.31-.67.63-1.33.94-2,.15-.33.29-.68.44-1,.06-.15.11-.31.17-.46L43,35.9l.37-1.08c.1-.33.21-.65.31-1s.13-.4.19-.6l.1-.09h0l.42-.38.45-.37.9-.75.82-.66.52-.4.5-.42.36-.32.41-.38.5-.5.35-.37c.25-.28.49-.56.72-.85s.46-.59.67-.9l.21-.31c0-.06.08-.12.11-.18l.33-.57c0-.06,0-.12.08-.17l.18-.37.21-.5q.19-.49.36-1l.18-.58c.06-.2.11-.39.16-.59s.08-.36.12-.54,0-.16,0-.24,0-.21,0-.31.05-.37.08-.56,0-.17,0-.25l0-.36v-.17c0-.14,0-.27,0-.41s0-.35,0-.52v-.52c0-.21,0-.43,0-.64s0-.42,0-.63,0-.4-.05-.6-.06-.4-.1-.6-.06-.35-.1-.52c-.16-.76-.34-1.52-.52-2.28s-.33-1.48-.5-2.23S51.12,9.72,50.92,9c-.1-.36-.2-.72-.31-1.08,0-.19-.11-.37-.17-.56a1.8,1.8,0,0,0-.08-.21l-.12-.36c-.07-.18-.15-.36-.23-.54s-.16-.35-.23-.52l-.46-1c-.09-.21-.18-.42-.26-.64l-.13-.37c0-.13-.07-.26-.11-.39s-.13-.49-.2-.74c-.14-.49-.28-1-.41-1.48a5.88,5.88,0,0,1-.14-.73v0a.78.78,0,0,0,0-.22A.34.34,0,0,0,48,.05a.3.3,0,0,0-.34,0,1.14,1.14,0,0,0-.16.15,1.88,1.88,0,0,0-.18.24,3.53,3.53,0,0,0-.21.32c-.21.32-.39.66-.57,1-.08.16-.16.34-.24.51s-.16.33-.23.5-.16.38-.24.57-.14.35-.21.53c-.14.34-.26.69-.38,1s-.25.72-.37,1.09c-.23.72-.45,1.44-.69,2.16s-.51,1.43-.81,2.13a21.65,21.65,0,0,0-.81,2.07,10.93,10.93,0,0,0-.31,1.12c0,.18-.08.37-.11.56s-.07.37-.09.56,0,.37-.06.55l0,.39a1.36,1.36,0,0,0,0,.2c0,.41,0,.83,0,1.24,0,.17,0,.33,0,.49s0,.49,0,.73,0,.31,0,.47,0,.34,0,.51,0,.4,0,.6,0,.39.07.58l.09.56c0,.19.08.39.11.58.15.75.29,1.5.46,2.25.08.38.17.76.25,1.14s.14.72.18,1.08c0,.12,0,.24,0,.35l.06.66c0,.22,0,.45,0,.67s0,.48,0,.72,0,.46,0,.69l-.09,2c0,.37,0,.74,0,1.11,0,.17,0,.35,0,.52l-.67,1.77c-.14.37-.28.73-.41,1.1l-.15.39-.2.51-.41,1-.48,1.1c-.27.62-.53,1.25-.75,1.89s-.47,1.39-.7,2.09c-.18.53-.38,1.06-.57,1.59l-.35.42c-.25.3-.49.61-.71.93-.49.67-1,1.36-1.4,2.06-.21.33-.42.66-.6,1s-.23.49-.34.74c0-.91,0-1.82,0-2.73-.05-1.27-.16-2.53-.29-3.79-.1-1-.24-1.92-.39-2.88a.43.43,0,0,0,0-.05h0a5.38,5.38,0,0,1,.2-.51l.35-.7.4-.81c.12-.25.23-.51.35-.76s.21-.49.3-.74a8.36,8.36,0,0,0,.25-.81l.18-.8c.06-.28.12-.56.16-.85s.07-.57.1-.86a13.78,13.78,0,0,0,0-1.7c0-.53-.05-1.06-.09-1.6A13,13,0,0,0,36.8,28a11.28,11.28,0,0,0-.47-1.63l-.27-.69h0c-.21-.52-.42-1-.66-1.54-.1-.23-.21-.46-.33-.68s-.27-.53-.42-.78l-.34-.51-.2-.24a.52.52,0,0,0-.1-.11.69.69,0,0,0-.11-.13l0,0-.35-.37-.44-.43-.68-.68h0l-.59-.61-.3-.32c-.08-.1-.17-.19-.26-.29-.37-.42-.75-.84-1.11-1.27s-.73-.88-1.1-1.31-.74-.86-1.12-1.28l-.72-.84L27,13.93c-.11-.14-.22-.27-.32-.41h0a.74.74,0,0,0-.12-.13.38.38,0,0,0-.18-.09.31.31,0,0,0-.19,0,.34.34,0,0,0-.18.15.67.67,0,0,0-.06.12l-.05.12c0,.09,0,.18,0,.26a1.79,1.79,0,0,0,0,.23c0,.14,0,.27,0,.41s-.05.56-.07.84c0,.54-.07,1.09-.09,1.64l0,.51c0,.56,0,1.11,0,1.67,0,.3,0,.61,0,.92s0,.59,0,.88l0,.79c0,.27,0,.53,0,.79s0,.55.06.82.05.58.09.88.05.35.07.52.05.25.07.38,0,.24.07.36l.12.52.09.35.12.43.24.77c.19.58.38,1.15.58,1.73,0,.1.07.2.11.3a4.13,4.13,0,0,0,.17.45c.05.14.11.29.17.44s.1.23.16.34l.15.33c.05.09.09.18.14.26l.08.15.25.44.22.33.2.3c.09.12.16.23.25.34s.21.27.31.4.19.21.28.31c.36.43.74.84,1.11,1.26s.7.82,1,1.26l.23.3,0,0c.16.22.32.44.46.67s.32.49.47.75.27.46.4.69l.34.56.18,1.3c.06.42.11.84.16,1.26.14,1.58.26,3.15.28,4.73,0,.82,0,1.64,0,2.46s0,1.58,0,2.36c0,.13,0,.27,0,.4h0v0h0c0,.35,0,.7-.07,1l-.06.64c0,.21-.06.41-.08.62-.11.76-.23,1.53-.36,2.29l0-.07c-.06.3-.11.61-.16.91a.13.13,0,0,1,0,.06h0v0h0v0l-.09.56v-.07c0,.09,0,.19-.05.29h0c-.09.58-.18,1.16-.28,1.74-.25,1.53-.52,3.06-.77,4.59-.14.78-.27,1.56-.41,2.34s-.29,1.58-.43,2.37c-.07.46-.15.92-.22,1.39v0c-.07.38-.13.75-.2,1.12-.16.8-.33,1.6-.51,2.39s-.36,1.55-.51,2.33c0,.17-.05.35-.08.52,0-.18,0-.36,0-.54l0-.43,0-.38c0-.2-.05-.39-.07-.59s0-.26-.06-.4a2.32,2.32,0,0,0-.06-.38c0-.2-.07-.4-.11-.59s-.13-.61-.2-.91-.16-.62-.24-.93-.17-.6-.25-.9-.19-.59-.28-.88l-.21-.64s0,0,0,0v0a.14.14,0,0,0,0-.07l.16-.45.13-.43a6.77,6.77,0,0,0,.21-.89c.06-.31.1-.64.13-1s.05-.6.05-.9A15.83,15.83,0,0,0,29,64a10.49,10.49,0,0,0-.26-1.57c0-.1,0-.21-.08-.31l0,.05A17.21,17.21,0,0,0,28,59.78l0-.14h0l0-.07c-.11-.28-.23-.57-.36-.84a5.84,5.84,0,0,0-.48-.8,8.47,8.47,0,0,0-.58-.76,2.59,2.59,0,0,0-.31-.35l-.32-.29c-.21-.17-.41-.33-.63-.49a4,4,0,0,0-.68-.35l0,0-.08,0h0l-.3-.13c.47-.78.9-1.58,1.3-2.4a24,24,0,0,0,1-2.58,15.84,15.84,0,0,0,.62-2.81l.09-.66,0-.35c0-.1,0-.19,0-.28,0-.52,0-1,.05-1.54,0-.93-.06-1.86-.13-2.78s-.17-1.83-.26-2.75v.08c-.09-.93-.18-1.85-.26-2.77,0-.49-.07-1-.09-1.45s0-.91,0-1.37,0-.93,0-1.4,0-.89,0-1.34c0-.88,0-1.75,0-2.63a1.66,1.66,0,0,0,0-.32.33.33,0,0,0-.11-.19A.4.4,0,0,0,26,28a1,1,0,0,0-.26.2,1.81,1.81,0,0,0-.24.24,12.71,12.71,0,0,0-.87,1.1c-.55.73-1.05,1.48-1.55,2.24-.39.6-.78,1.2-1.18,1.79s-.79,1.12-1.21,1.66c-.59.73-1.22,1.41-1.83,2.13a11.38,11.38,0,0,0-.79,1l-.18.27-.19.32-.33.68c-.1.22-.19.45-.27.68s-.16.49-.22.73c-.14.51-.25,1-.34,1.55v0L16.5,43h0c-.07.44-.12.89-.16,1.34s0,1,0,1.48,0,.89,0,1.33,0,.95.07,1.42A14.61,14.61,0,0,0,16.55,50c0,.21.08.42.12.63s.1.45.16.67a.74.74,0,0,1,0,.14,1.92,1.92,0,0,0-.18-.31,2.38,2.38,0,0,0-.39-.45c-.14-.13-.29-.25-.44-.37l-.26-.2-.22-.16a1.28,1.28,0,0,0-.27-.11.2.2,0,0,0-.24.2l0,.29c.06.6.13,1.2.22,1.8s.16,1.21.25,1.82.2,1.24.28,1.86c0,.3.07.6.1.91l.12.91c.05.31.09.62.15.93s.13.62.21.92a12.84,12.84,0,0,0,.64,1.8,28.07,28.07,0,0,0,1.7,3.32l.51.83a4.63,4.63,0,0,0,.61.79,5.17,5.17,0,0,0,.62.52c0,.19,0,.38,0,.57.07,1,.13,2,.21,3s.19,1.91.26,2.87.17,1.92.26,2.88c.05.45.1.9.16,1.35s.12.81.2,1.21c.15.86.32,1.72.53,2.57.15.63.33,1.26.5,1.88l-.87-1.37c-.67-1-1.36-2.06-2-3.13-.13-.2-.24-.41-.36-.62l-.36-.66c-.09-.26-.19-.51-.3-.77a13.91,13.91,0,0,0-.8-1.59,15.7,15.7,0,0,0-.93-1.46c-.08-.12-.17-.23-.25-.34s-.17-.43-.25-.64q-.39-1.05-.75-2.1c-.23-.68-.43-1.36-.6-2-.09-.41-.19-.81-.27-1.22s-.13-.91-.18-1.37-.11-1.2-.16-1.8-.14-1.32-.21-2h0v-.09c-.11-1.1-.16-2.2-.27-3.3a9.56,9.56,0,0,0-1.05-3.2c-.08-.18-.16-.35-.23-.54a15.54,15.54,0,0,1-.47-1.65,14.76,14.76,0,0,0-.52-1.59,6.86,6.86,0,0,0-.35-.78,5.28,5.28,0,0,0-.42-.69,3.79,3.79,0,0,0-.53-.6c-.21-.19-.43-.37-.66-.55-.47-.35-1-.65-1.49-1a15.8,15.8,0,0,1-1.39-.91c-.12-.11-.23-.21-.33-.32-.38-.41-.73-.85-1.09-1.27l-1-1.22c-.17-.2-.34-.38-.52-.57s-.36-.39-.55-.58a7.31,7.31,0,0,0-.59-.52,5,5,0,0,0-.6-.43.56.56,0,0,0-.47-.07,1,1,0,0,0-.44.45,1.93,1.93,0,0,0-.15.4,2,2,0,0,0-.09.33c0,.09,0,.18-.05.27a.59.59,0,0,0,0,.13s0,.05,0,.08,0,.07,0,.1h0l0,.11h0c-.06.37-.09.74-.13,1.11s-.07.85-.11,1.27c-.06.82-.1,1.63-.13,2.44v.11h0v.06h0v.28h0v0h0c0,.27,0,.54,0,.81s0,.56,0,.84,0,.6,0,.9,0,.56.06.84.06.6.1.89.08.56.13.84.15.64.23,1a6.7,6.7,0,0,0,.24.76c.05.16.12.31.18.46s.11.26.17.39.3.57.46.85c.27.49.55,1,.83,1.45s.6,1,.92,1.5.66,1,1,1.43.59.87.87,1.31q.27.42.54.81c.17.25.35.49.53.73a7.75,7.75,0,0,0,.52.62c.2.22.41.44.62.65a6.19,6.19,0,0,0,.67.58c.2.17.41.33.62.48.4.27.81.52,1.22.77s.76.48,1.13.74.75.54,1.11.82.45.36.67.56.41.39.62.6l1.54,1.67.34.36a11.72,11.72,0,0,0,.78,1.49c.31.51.65,1,1,1.51.59.94,1.09,1.93,1.69,2.87s1.36,2.07,2,3.11c.2.32.4.64.61,1s.28.46.43.68.38.63.55,1l.16.31a1,1,0,0,1,.05.16c.12.44.23.87.34,1.31.2.85.39,1.7.59,2.54s.48,1.92.77,2.86c.14.47.3.94.46,1.41s.31,1,.45,1.44c.3.94.59,1.87.93,2.8s.74,1.88,1.16,2.79c.34.74.73,1.45,1.12,2.15l0,.06-.13,0-.54-.15a10.22,10.22,0,0,1-1.21-.43,4.68,4.68,0,0,1-.54-.3l-.72-.47-.77-.47c-.25-.14-.5-.28-.77-.41s-.55-.25-.83-.36a3.75,3.75,0,0,0-.85-.25,2.13,2.13,0,0,0-1.13.25,6.26,6.26,0,0,0-.77.4,3.87,3.87,0,0,0-.37.24,3.51,3.51,0,0,0-.36.29,3.86,3.86,0,0,0-.58.69,8.69,8.69,0,0,0-.46.77c-.09.19-.18.37-.26.56-.11-.46-.23-.92-.34-1.37h0c0-.19-.09-.37-.13-.56s-.11-.48-.15-.72-.12-.56-.17-.85c-.09-.47-.17-.94-.26-1.42s-.21-1.07-.33-1.6c0-.12-.06-.25-.08-.37s-.05-.21-.08-.32-.09-.31-.13-.47-.07-.24-.11-.36-.16-.48-.24-.73l-.16-.39c0-.09-.07-.19-.11-.28s-.21-.47-.33-.7-.23-.47-.35-.71c-.48-.94-1-1.87-1.54-2.77-.07-.13-.15-.25-.23-.38s-.15-.23-.22-.34L13.45,88l-.26-.36-.28-.35a3.22,3.22,0,0,0-.24-.28,3.07,3.07,0,0,0-.25-.26l-.26-.25c-.2-.17-.4-.35-.6-.51l-.63-.5-.32-.26-.16-.14-.17-.15L10,84.62c-.11-.1-.2-.21-.31-.31l-.5-.54-.55-.6A5.72,5.72,0,0,0,7.2,82a8.47,8.47,0,0,0-.87-.38L6,81.5l-.35-.12-.66-.23L4.58,81l-.36-.15c-.24-.12-.48-.23-.71-.37s-.61-.41-.9-.63L2,79.38l-.39-.33-.34-.33L.77,78.2.56,78a1.49,1.49,0,0,1-.12-.14.23.23,0,0,0-.12-.1.26.26,0,0,0-.24,0A.25.25,0,0,0,0,78H0a11.81,11.81,0,0,0,.12,1.45c.07.51.16,1,.25,1.52C.57,82,.78,83,1,84l.27,1.53c.09.49.17,1,.25,1.47s.15,1,.22,1.53.12,1,.19,1.54.14,1,.24,1.58c.05.27.11.53.17.8s.08.25.11.37l.06.15a1.07,1.07,0,0,0,.07.19l.15.36.18.37q.18.38.39.72c.26.45.55.88.85,1.3l.7,1,.73,1,0,0,.06.08,0,0,.05.06,0,0h0l0,0,0,0,0,0,0,.05a7.93,7.93,0,0,0,1,1.16l.31.27c.11.1.22.18.34.27l.61.46.56.39.21.14L9,101h.08l.12.08,0,0,.2.12,0,0,.11.06,0,0,.09,0a3.35,3.35,0,0,0,.37.2l.27.14.44.21.36.15.77.32.64.25c.5.18,1,.36,1.52.49s1,.24,1.51.36,1.11.24,1.67.39l.27.08h-.05l.25.08.27.09.16.06-.28.57a6.55,6.55,0,0,0-.37.86,3.52,3.52,0,0,0-.13.43,4,4,0,0,0-.09.48,2.36,2.36,0,0,0,0,.46,4,4,0,0,0,.06.5c.06.37.11.73.15,1.1a5.44,5.44,0,0,1,0,.57,4.07,4.07,0,0,1-.05.49,2.25,2.25,0,0,1,0,.22c0,.1-.07.2-.11.31a5.14,5.14,0,0,1-.29.51h0a.35.35,0,0,1-.05.08,6.52,6.52,0,0,0-.56,1.16c-.15.43-.28.87-.4,1.3l-.06.17h0l0,.08,0,.1h0c0,.05,0,.11,0,.16v-.05a5.45,5.45,0,0,0-.2.89,1.91,1.91,0,0,0,0,.41,2.26,2.26,0,0,0,.1.45,2.3,2.3,0,0,0,.18.43,7.39,7.39,0,0,0,.47.76c.17.25.35.5.55.74a4.65,4.65,0,0,0,.67.66,7.32,7.32,0,0,0,.8.52,8,8,0,0,0,.84.39q.39.17.81.3c.29.1.58.18.88.27l.85.24c.31.08.61.14.92.2h.08l.83.13c.3,0,.61.1.91.13l.92,0,.95,0a5.8,5.8,0,0,0,.92-.12,6.93,6.93,0,0,0,.75-.2c.23-.08.45-.17.68-.27.44-.19.88-.4,1.3-.63l.1-.06a10.62,10.62,0,0,0,1-.63l.44-.29.43-.27.05,0a9.64,9.64,0,0,0,.25,1,4.56,4.56,0,0,0,.56,1.1l-.05.06-.17.19-.27.34-.15.16-.09.08a5.58,5.58,0,0,1-.52.32l-.59.36a6.19,6.19,0,0,1-.58.28q-.29.11-.57.18c-.31.07-.63.13-.95.18l-1,.14c-.81.07-1.62,0-2.42.09l-1.22.1a7.09,7.09,0,0,0-1.21.19l-1.35.37h0l-1.21.28-1.18.27c-.41.09-.82.16-1.22.26a3.15,3.15,0,0,0-1.13.52,1.75,1.75,0,0,0-.68,1,2.32,2.32,0,0,0,0,.83,4.11,4.11,0,0,0,.38,1.17,7,7,0,0,0,.69,1.1c.11.15.23.29.35.43l.4.48c.28.32.57.64.86.95.13.14.26.29.38.44s.19.29.28.44a7,7,0,0,1,.34.74c.27.77.41,1.58.66,2.35.13.39.27.77.4,1.16s.27.8.42,1.19a3.85,3.85,0,0,0,.32.68,2.82,2.82,0,0,0,.18.29c.08.1.15.21.23.32a3.37,3.37,0,0,0,.55.58l.08.06h0l0,0a14.35,14.35,0,0,0,2,1.37,5.77,5.77,0,0,0,.56.27,3.28,3.28,0,0,0,.52.2l.2.05.35,0,1.19.14a5.68,5.68,0,0,0,.59,0,2.78,2.78,0,0,0,.57-.07,3.65,3.65,0,0,0,.56-.18,4.45,4.45,0,0,0,.54-.25,8.72,8.72,0,0,0,1-.6c.16-.12.31-.23.46-.36s.28-.25.43-.36a1.37,1.37,0,0,1,.2-.13l.11,0,.17-.06.19,0h.23a4.93,4.93,0,0,1,.54,0l.38.07c.26.05.51.09.77.12a3.72,3.72,0,0,0,.67,0,3.15,3.15,0,0,0,.61-.06,2.17,2.17,0,0,0,.5-.13,2.14,2.14,0,0,0,.52-.32,3.92,3.92,0,0,0,.46-.45c.28-.29.54-.59.81-.88s1.18-2.6,1.39-2.94c.08-.12.65,3-.47,13.86,0,.39-.1.78-.16,1.17l-.42.34-1.82,1.46c-.14.11-.28.22-.41.34s-.3.27-.45.42-.28.28-.41.43l-.42.47-.41.5-.32.4-.32.41-.24.34a1.13,1.13,0,0,0-.1.13l-.2.3-.14.21-.29.48-.15.28-.12.22-.24.5-.24.56-.22.57c-.13.33-.25.67-.35,1,0,.17-.11.35-.15.52l-.08.4a1.16,1.16,0,0,0,0,.18c0,.22-.07.44-.11.66,0,.07,0,.14,0,.21l0,.37c0,.37,0,.75,0,1.12s0,.74,0,1.11c0,.17,0,.34,0,.51s.05.47.08.7.06.37.09.56.05.31.08.47.08.43.13.64l.15.64.24,1,.24,1.16c0,.18.08.37.11.56s.07.37.1.56h0s0,.09,0,.13c-.08.2-.16.39-.23.59l-.36,1c-.13.36-.26.72-.38,1.08l-.14.42c-.05.16-.11.31-.15.47-.1.36-.21.72-.29,1.08-.18.71-.34,1.43-.51,2.15v-.06c-.06.26-.13.52-.2.78s-.13.47-.2.71-.18.63-.26.95-.12.41-.17.62c0-.2,0-.39,0-.59s0-.67,0-1-.05-.66-.08-1c-.06-.61-.15-1.23-.23-1.85v0a14.23,14.23,0,0,0-.25-1.57,2.68,2.68,0,0,1-.07-.27,2.76,2.76,0,0,0-.08-.27c-.05-.16-.11-.32-.17-.49s-.27-.62-.41-.93-.27-.53-.41-.8l-.46-.89a11.67,11.67,0,0,0-1-1.66l-.12-.15a.51.51,0,0,1,0-.13h0l-.06-.47c0-.19-.05-.37-.07-.56s-.05-.34-.08-.52a1.7,1.7,0,0,0,0-.22l0-.21c0-.12-.05-.25-.08-.37l0-.15h0v0h0l0,0v0h0l0-.06v0s0,0,0-.06v0h0a.19.19,0,0,1,0-.07v0l0-.12v0l0-.08h0l0-.09s0,0,0-.06v0a.61.61,0,0,1,0-.11v0h0c0-.11-.07-.22-.11-.34l-.11-.33-.16-.42c0-.11-.08-.21-.13-.32s-.09-.18-.13-.28l-.06-.14-.22-.4c-.06-.1-.11-.2-.18-.3s-.18-.29-.27-.42a7.45,7.45,0,0,0-1.63-1.67c-.49-.38-1-.71-1.53-1.05-.21-.14-.42-.28-.64-.41l-.35-.2a2.64,2.64,0,0,0-.37-.2,2.74,2.74,0,0,0-.4-.15,3.45,3.45,0,0,0-.43-.12c-.26-.07-.53-.11-.79-.16-.52-.09-1-.18-1.54-.3l-.44-.13-.47-.17h0l-.59-.26-.61-.31c-.47-.24-.95-.46-1.44-.67l-1.48-.61-.79-.33-.33-.15-.2-.09-.3-.14a1,1,0,0,0-.29-.06.65.65,0,0,0-.24.06.45.45,0,0,0-.19.14.82.82,0,0,0-.12.2,1.51,1.51,0,0,0-.11.56c0,.15,0,.3,0,.45s0,.53.05.79c0,.57.09,1.14.13,1.71,0,.27.05.55.07.82s0,.29.05.43a.77.77,0,0,0,0,.15l0,.26c0,.15,0,.31.08.46a4,4,0,0,0,.11.5,5.44,5.44,0,0,0,.15.54,8.36,8.36,0,0,0,1,2.11,9.46,9.46,0,0,0,.69,1,11.13,11.13,0,0,0,.8.88,8.39,8.39,0,0,0,.9.78,8.1,8.1,0,0,0,.86.58h0l0,0h0l.06,0,0,0,.09,0h0l.07,0,0,0,.09,0h0l.13.07h0l0,0h0l0,0h0l0,0h0l0,0h0l.05,0h0l0,0h0l.29.14.34.16c.1.05.21.08.31.12l.34.13h0l.22.07.36.11c.26.08.52.13.78.2l.41.08.33.07.91.2.72.15.9.17.79.14c.53.09,1.06.21,1.59.34l.66.18.6.21h0l.24.09L24,170a22.61,22.61,0,0,1,2.28,1.46c.14.11.28.22.41.34l.08.08.14.21.15.3c.06.12.12.25.19.36a1.33,1.33,0,0,0,.21.26c.06.35.11.69.16,1s.09.76.14,1.14c.09.78.17,1.56.29,2.33l.18,1.12c.07.4.14.79.2,1.19,0,.2,0,.39.07.59s0,.38,0,.58v.33c0,.3-.05.61-.07.91,0,.11,0,.22,0,.34s-.1.33-.14.5l-.12.45a5.72,5.72,0,0,0-.11.57.16.16,0,0,0,.09.15l.06,0h0l-.15,1.08c-.1.63-.23,1.27-.39,1.89-.09.32-.17.64-.28.95l0,0h0l.26.34,0,.07c-.25.64-.51,1.27-.79,1.9q-.3.6-.57,1.23c-.19.41-.34.84-.51,1.27-.34.89-.69,1.77-1.05,2.65s-.77,1.76-1.12,2.65-.6,1.5-.91,2.24a1.59,1.59,0,0,1-.13.22c-.23.42-.48.82-.71,1.25s-.44.87-.63,1.33-.34.85-.52,1.27v0c-.18.38-.35.76-.52,1.14-.1.23-.2.46-.29.7s-.27.54-.4.82c-.21.45-.39.91-.57,1.38s-.27.82-.4,1.23-.29.88-.45,1.32a1.23,1.23,0,0,0,.43,1.42,1.48,1.48,0,0,0,.5.21,1.11,1.11,0,0,0,.26,0,1.2,1.2,0,0,0,.72-.28,2.16,2.16,0,0,0,.59-1.15c.09-.3.17-.6.24-.91.13-.53.24-1.07.35-1.61,0-.18.08-.37.11-.54l.38-1c.21-.54.4-1.08.58-1.63s.33-1,.5-1.57.38-1.06.61-1.58.39-.83.58-1.25.39-.89.58-1.34c.38-.91.74-1.83,1.12-2.74.18-.45.37-.89.55-1.33s.34-.87.49-1.31c.35-1,.72-1.92,1.1-2.88.27-.69.57-1.38.86-2.07l1.21-1.58c.5-.65,1-1.3,1.52-1.94,1-1.22,2.07-2.38,3.16-3.52.3-.3.6-.61.91-.9l.94-.9.62-.23.75-.29c.27-.11.55-.2.83-.3l.77-.23h0l.37-.1c.52-.14,1.05-.25,1.58-.35l1.65-.29.41-.08.49-.11.41-.11.35-.11.37-.13.47-.18.16-.07.26-.12.33-.16.34-.17.41-.24c.14-.07.27-.16.41-.24l.27-.17,1.53-1,.66-.46c.13-.08.24-.17.36-.26a3.15,3.15,0,0,0,.29-.22l.43-.33.28-.24.28-.25.39-.37c.21-.2.41-.42.62-.63s.36-.4.55-.6l.52-.59c.17-.21.35-.4.51-.61s.38-.45.56-.68.39-.48.57-.73c.34-.43.67-.88,1-1.32l.31-.42.94-1.35.47-.69.23-.35.12-.2a1.55,1.55,0,0,0,.12-.22l0-.12a.68.68,0,0,0,0-.14.29.29,0,0,0,0-.22.31.31,0,0,0-.16-.12.34.34,0,0,0-.2,0,1,1,0,0,0-.17,0h0l-.5.12-.49.1-1.08.21-1.68.31-1.67.34c-.55.11-1.11.2-1.66.3l-.39.06-.43.07-.84.11h0l-1,.11-.61.07-.5.07h0l-.16,0-.16,0-.29.07a5.8,5.8,0,0,0-.59.19,8.33,8.33,0,0,0-.82.34l-.68.32c-.49.26-1,.52-1.47.8h0l-.63.37a10.52,10.52,0,0,0-1.39,1,13.25,13.25,0,0,0-1.19,1.18c-.36.39-.72.79-1.06,1.19a13.35,13.35,0,0,0-1,1.34c-.16.24-.32.49-.46.74s-.27.51-.4.76-.24.5-.36.74a7.61,7.61,0,0,0-.31.79c-.08.25-.16.51-.23.77s-.13.54-.19.81-.13.59-.19.88-.11.52-.17.77a4.48,4.48,0,0,1-.16.52h0s0,0,0,.05c-.71.66-1.42,1.31-2.1,2-.88.9-1.76,1.82-2.59,2.79l-.36.44c.11-.35.23-.7.34-1l.36-.86c.19-.46.39-.92.58-1.39s.34-.89.5-1.34c.29-.83.61-1.65.87-2.49s.51-1.68.78-2.51c.14-.44.28-.88.43-1.31l.45-1.3c.28-.84.53-1.69.74-2.56.45-1.81.79-3.64,1.25-5.45,0-.09,0-.17.07-.26l0,0,.46-.48.25-.25c.26-.25.54-.49.82-.73l.91-.74c.59-.48,1.17-1,1.75-1.48l.45-.38.42-.38c.15-.13.28-.27.42-.41s.27-.29.41-.44l.33-.38.3-.37c.16-.18.31-.37.47-.56s.21-.25.3-.38c.26-.32.51-.65.77-1l.11-.16.22-.33c.1-.15.2-.31.29-.47l.29-.49.26-.51c.17-.35.31-.71.45-1.07.27-.69.45-1.41.65-2.12s.43-1.46.7-2.18.53-1.41.8-2.12l.39-1.07c.12-.35.24-.7.35-1.06.06-.18.11-.36.17-.54s.11-.4.16-.6.09-.35.13-.54.09-.36.13-.54c.07-.38.14-.75.18-1.14,0-.12,0-.25,0-.38a1.43,1.43,0,0,0,0-.29.85.85,0,0,0,0-.23.28.28,0,0,0-.26-.21.32.32,0,0,0-.16,0,1.21,1.21,0,0,0-.16.16v0a6.3,6.3,0,0,1-.55.48c-.41.31-.83.61-1.25.91l-.62.45-.32.23-.34.22c-.2.11-.4.23-.6.33l-1,.5-.51.26c-.17.09-.35.18-.51.28l-.32.2a2,2,0,0,0-.19.12c-.17.11-.33.21-.49.33l-.91.65-1.21.91c.21-1.42.4-2.85.53-4.28.09-1,.17-2,.22-3,0-.28,0-.56,0-.83a7.48,7.48,0,0,0,0-.82c0-.47,0-.95,0-1.43,0-.74,0-1.49,0-2.24,0-.41,0-.81,0-1.22v-.36c0-.19,0-.38,0-.57v-.09a.28.28,0,0,1,0-.09l0-2.41c0-.54,0-1.08,0-1.62,0-.15,0-.3,0-.45,0-.57,0-1.14,0-1.72s-.07-1.08-.1-1.62v-.06c0-.49,0-1,0-1.49,0-.19,0-.38,0-.57l0-.42c0-.07.05-.13.07-.2l.17-.39.1,0v0c0,.29,0,.58,0,.88v0h0c0,.34,0,.68-.07,1s0,.76-.07,1.14c0,.7,0,1.4,0,2.1,0,.17,0,.34,0,.52s0,.38,0,.57,0,.41,0,.62,0,.37.06.56.1.64.17,1,.07.35.11.52.1.42.16.63.14.49.21.74a.5.5,0,0,1,.05.13,2,2,0,0,1,.1.26l.12.32.21.43c0,.1.1.19.15.29l.39.7,0,0c.16.3.32.61.47.92,0,.1.09.19.14.29a1.73,1.73,0,0,0,.11.54,2.85,2.85,0,0,0,.23.37l.3.36a1.31,1.31,0,0,0,.12.11.21.21,0,0,0,0,.06,4.93,4.93,0,0,0,1,1c.3.23.62.45.94.66s.46.29.7.42l.35.18L48,139c.28.19.55.39.82.6s.57.42.88.62l.33.2a2.77,2.77,0,0,0,.67.27l.23,0a2.32,2.32,0,0,0,.83,0,2,2,0,0,0,.74-.31l.45-.26c.31-.17.6-.34.89-.53a7.48,7.48,0,0,0,.81-.68,9.72,9.72,0,0,0,.67-.77c.22-.26.45-.53.68-.78a5.55,5.55,0,0,1,.42-.42h0c.16-.15.33-.29.5-.42l.35-.23.27-.15.3-.13c.42-.16.85-.29,1.29-.42s.87-.3,1.32-.41l.66-.11h0l.49-.05a5.21,5.21,0,0,0,.57-.09,7.05,7.05,0,0,0,1-.34,4.3,4.3,0,0,0,.48-.24,3.11,3.11,0,0,0,.43-.31,2.47,2.47,0,0,0,.37-.42,3.35,3.35,0,0,0,.27-.45c.15-.32.29-.65.41-1a5.47,5.47,0,0,0,.26-1.06c0-.17,0-.34.07-.51s0-.4,0-.6a2.57,2.57,0,0,0-.06-.55,3.87,3.87,0,0,0-.15-.56c0-.14-.1-.27-.14-.41s0-.05,0-.08v-.05a.49.49,0,0,1,0-.12,2.82,2.82,0,0,1,.07-.31q.32-1,.69-1.92c.07-.17.14-.33.2-.5a4.27,4.27,0,0,0,.18-.54,3.67,3.67,0,0,0,.14-.93,2,2,0,0,1,0-.25,3.68,3.68,0,0,0-.1-.82,3.5,3.5,0,0,0-.73-1.42,2.92,2.92,0,0,0-.42-.44,2.19,2.19,0,0,0-.53-.37,2.45,2.45,0,0,0-.71-.22,11.88,11.88,0,0,0-2.15-.11l-.68,0-1-.09c-.33,0-.66-.08-1-.1L58,120.21c-.36,0-.73-.09-1.09-.14h0c-.34-.06-.68-.12-1-.2l-1.07-.29-1-.26c-.33-.08-.67-.16-1-.26l-.32-.09-.7-.25c-.22-.08-.43-.18-.64-.27l-.68-.34c-.24-.14-.48-.27-.72-.42l-1.31-.79-.35-.23-.18-.12-.09-.06.08-.17.57,0c.2,0,.4,0,.6,0s.52.06.78.09l.67.1.82.12.6.11.53.13c.34.07.68.17,1,.26.71.2,1.41.41,2.12.6a18.62,18.62,0,0,0,2.21.51l.56.08a3.69,3.69,0,0,0,.47,0l.4,0A9.66,9.66,0,0,0,60.3,118l.59-.16c.21-.06.41-.14.62-.22.38-.14.75-.3,1.13-.45.68-.26,1.37-.51,2-.83a10.5,10.5,0,0,0,1-.57,9.63,9.63,0,0,0,.94-.63c.21-.15.41-.32.62-.48a7.43,7.43,0,0,0,.59-.53,3.65,3.65,0,0,0,.24-.31,2.59,2.59,0,0,0,.14-.29,2.9,2.9,0,0,0,.16-.41c.08-.23.15-.46.23-.68l.09-.17.09-.13L69,112l.18-.15a3.68,3.68,0,0,1,.45-.28l1-.48.28-.16a1.34,1.34,0,0,0,.28-.18,3,3,0,0,0,.33-.29,3.26,3.26,0,0,0,.43-.6,6.91,6.91,0,0,0,.36-.72c.11-.23.21-.47.3-.71s.19-.54.27-.81a6.66,6.66,0,0,0,.3-1.59A5.21,5.21,0,0,0,72.89,104.44Zm-29.6-81c-.1-.43-.19-.87-.28-1.3l-.12-.53-.06-.26c0-.21-.09-.44-.13-.66l0-.14-.06-.32,0-.35,0-.18,0-.36,0-.15c0-.12,0-.24,0-.36v-.06c0-.32,0-.64,0-1v-.25c0-.22,0-.45,0-.67V15.61c0-.24,0-.49,0-.73v-.1l0-.29c0-.16.05-.32.07-.5l.08-.43c0-.12,0-.23.07-.35l0-.09a2.68,2.68,0,0,1,.07-.27l0-.07.11-.38,0-.08c.1-.31.21-.64.33-1l.15-.36c.1-.25.2-.49.29-.74.28-.72.54-1.45.78-2.2l.27-.88c.14-.43.27-.86.41-1.28.25-.77.5-1.46.76-2.11.12-.29.24-.59.36-.86s.31-.66.47-1l.17-.31s.05-.1.08-.14a1.92,1.92,0,0,1,.18-.31l.06-.11L47.32,1c.1-.14.19-.29.3-.43l.07-.08h0a7.09,7.09,0,0,0,.18,1c.1.4.21.79.31,1.18s.19.74.29,1.11.23.67.38,1.06c.1.24.21.47.31.7l.15.32a1.54,1.54,0,0,0,.08.19l.15.34.13.33.09.21.12.33,0,.13.12.37c.09.29.17.59.24.86l.12.41.3,1.12.06.24h0c.08.37.18.77.26,1.17s.13.61.19.92l0,.17c.07.39.15.77.22,1.16l.21,1c.06.34.13.68.19,1l0,.08.06.33,0,.25,0,.31,0,.14c0,.21,0,.42,0,.64s0,.63,0,1,0,.52,0,.77v.14c0,.21,0,.42,0,.62v.16h0v0h0c0,.1,0,.2,0,.3v.29c0,.05,0,.1,0,.16v.08l0,.32,0,.23,0,.23-.06.33a1.24,1.24,0,0,0,0,.16c0,.1-.05.2-.08.3l0,.15-.09.29,0,.12c-.07.22-.14.41-.2.59l-.09.27a3.62,3.62,0,0,1-.13.35l-.09.24a2.44,2.44,0,0,0-.1.24c0,.1-.1.2-.14.3l-.15.29a1.28,1.28,0,0,1-.11.2l0,.1-.13.23,0,.06-.26.4-.21.31,0,0-.06.09-.18.25-.31.4-.19.23L49,28c-.08.1-.17.19-.26.29l-.1.11-.53.55-.15.16-.22.19c-.19.18-.38.37-.59.54l-1,.82c-.68.56-1.23,1-1.72,1.49l-.27.27h0c.07-.21.12-.42.18-.63.15-.57.29-1.16.43-1.72l.08-.36c.17-.71.36-1.41.55-2.1.1-.37.19-.72.29-1.06l.27-1v-.06c.18-.69.37-1.4.57-2.09l0-.1h0l.08-.26c.08-.26.16-.51.23-.77a7.83,7.83,0,0,0,.23-1,3.07,3.07,0,0,0,.06-.52v-.05c0-.17,0-.34,0-.49s0-.51,0-.76,0-.21,0-.31V19c-.11.31-.22.66-.33,1.08-.08.27-.17.64-.24,1a9.72,9.72,0,0,1-.22,1l-.3,1.05c-.12.42-.24.85-.35,1.26,0,.18-.09.36-.14.55-.2.73-.37,1.34-.54,1.92l-.14.45c-.1.3-.19.6-.28.89h0c-.17.55-.34,1.13-.51,1.71a1.82,1.82,0,0,1-.07.25h0c0-.38,0-.7,0-1s0-.32,0-.47v-.66a1,1,0,0,0,0-.17v-.15c0-.06,0-.12,0-.18L44,27c0-.21,0-.42-.07-.63s0-.34-.08-.51c-.07-.4-.16-.79-.25-1.19S43.39,23.82,43.29,23.4Zm4.2,14.22.43-.19,1.13-.5.32-.12.26-.09.12,0c.21-.07.44-.13.65-.18l.09,0h.08c.22-.05.45-.1.68-.13l.79-.09H53.3l.46,0,.49,0,.39,0,.52,0c.59.05,1.2.09,1.79.12h.1l1.34.09.54,0c.59,0,1.21.09,1.82.17h.11l.56.08.14,0,.34,0a1.17,1.17,0,0,0,.49,0,1.4,1.4,0,0,0,.44-.22,1.63,1.63,0,0,0-.35-.23,1.43,1.43,0,0,0-.39-.15l-.12,0-.23,0H61.6l-.47-.06C60.58,36.1,60,36,59.27,36l-.53,0-1.42-.08c-.61,0-1.27-.06-1.9-.12l-1-.11c-.28,0-.57-.08-.85-.1s-.72-.06-1-.08-.54,0-.8,0H51.3l-.2,0H51l-.29,0h0l-.19,0H50.4l.17-.14.11-.09.29-.25.15-.11.34-.28.29-.21.17-.12.36-.25.12-.07a2.9,2.9,0,0,1,.29-.19l.23-.14.29-.16.37-.19.16-.09.16-.07.09,0,.08,0,.2-.08.15-.06.1,0,.07,0,.12,0h0l.07,0,.28-.08.39-.11c.31-.07.63-.12.93-.16s.6,0,.93,0l.89.07h.07l.42,0,.21,0,1.06.14.22,0h0c.23,0,.45.08.67.14l.46.18c.38.18.75.38,1.11.57l.3.16c.22.12.46.24.69.34a6.57,6.57,0,0,0,.78.31c.25.08.52.16.81.23s.48.1.72.14l.07,0c.32,0,.59.11.85.16l.72.16.87.22.68.17,1.59.39h.06l.09,0h0l0,.09a1.88,1.88,0,0,1-.16.23l0,.05h0l-.36.42-.06.07-.17.18-.22.23-.36.36-.58.61-.08.08c-.16.18-.33.35-.5.51L68,39l-.32.31-.24.22-.17.15-.19.17-.45.36a11.16,11.16,0,0,1-1,.64c-.33.17-.67.33-1,.47a8.25,8.25,0,0,1-1.13.35,10.58,10.58,0,0,1-1.35.23,8,8,0,0,1-1.1,0,8.53,8.53,0,0,1-1-.09l-.17,0-.34-.06L59,41.64l-.06,0h0l-.22-.06-.1,0-.17-.05h0l-.28-.1-.3-.12L57.22,41l-.54-.25-1-.47c-.6-.28-1.07-.5-1.51-.72l-.25-.13c-.28-.13-.56-.28-.84-.4h0l-.71-.31-.07,0c-.26-.12-.49-.21-.71-.29s-.57-.21-.83-.3a3.06,3.06,0,0,0-.38-.1l0,0-.13,0h0l-.13,0-.12,0-.66-.08-.17,0-.63-.07-.18,0-.76-.06h0Zm-14.06.1h0l-.31-.5c-.16-.25-.3-.46-.44-.66l0,0c-.15-.22-.32-.45-.49-.66s-.36-.47-.55-.69c-.31-.38-.65-.75-1-1.11L30.54,34l-.14-.16L30,33.32l0,0c-.07-.08-.14-.15-.2-.23l-.1-.12-.17-.21-.26-.36A2.2,2.2,0,0,1,29,32.1L29,32l0,0a2.61,2.61,0,0,1-.17-.28l-.06-.09-.17-.3c-.05-.08-.09-.17-.14-.26L28.37,31l-.12-.25,0-.07,0-.05-.12-.27L28,30.12l-.09-.21,0-.1c-.08-.21-.16-.41-.23-.61l-.3-.87-.27-.86c-.06-.17-.11-.34-.16-.5l-.07-.25-.06-.2,0-.11-.05-.16,0-.16c0-.11-.05-.21-.07-.32l-.05-.21c0-.13,0-.25-.07-.38v-.07h0V25c0-.13-.05-.26-.06-.39l0-.15c0-.14,0-.28-.05-.42a2.45,2.45,0,0,0,0-.27c0-.16,0-.33,0-.49l0-.28c0-.19,0-.37,0-.56,0-.66,0-1.21,0-1.77V19.8c0-.14,0-.29,0-.43h0c0-.1,0-.19,0-.28V19h0c0-.14,0-.29,0-.43v-.31c0-.18,0-.36,0-.55v-.15h0c0-.2,0-.41,0-.61s0-.68,0-1v-.09c0-.28,0-.56,0-.84V15c0-.22,0-.46.05-.69V14.2h0l.19.23a1,1,0,0,0-.07.23.45.45,0,0,0,0,.16v0a.88.88,0,0,0,0,.17c0,.17.06.34.09.5v0c0,.17.09.35.13.54s.11.38.16.59l.19.6c.06.18.13.34.19.5a7.09,7.09,0,0,0,.39.78,2,2,0,0,0,.11.2c.21.41.38.72.55,1l.36.61c.06.1.12.2.19.3.2.35.41.68.61,1s.43.67.7,1l.39.5.36.46,0,0,.15.21a2,2,0,0,1,.14.25l0,.05h0v0h0l0,.06c.08.14.16.3.23.45s.16.37.23.56l.21.6c.07.2.12.42.17.61s.06.36.08.54l0,.11,0,.22a.07.07,0,0,1,0,.05.24.24,0,0,0,.09.23l.05,0a.14.14,0,0,0,.1,0,.24.24,0,0,0,0-.22v0l0-.18v-.09c0-.17,0-.35-.07-.53a3.73,3.73,0,0,0-.09-.46c0-.15-.07-.3-.11-.45l-.05-.19c-.11-.41-.21-.77-.33-1.1-.06-.15-.12-.31-.21-.5l-.12-.26a2,2,0,0,0-.11-.2l0-.06c-.07-.12-.15-.23-.22-.33l-.07-.11,0-.05-.24-.36c-.2-.29-.38-.59-.54-.88-.47-.88-.88-1.81-1.29-2.71-.19-.43-.38-.87-.58-1.3-.11-.23-.21-.45-.29-.65s-.24-.67-.36-1l-.05-.14h0l.07.08.49.54,1.05,1.23,1.11,1.3c.35.38.75.83,1.17,1.27l0,0,.56.58.61.62.1.09.21.22.12.12.18.19,0,0c0,.07.11.13.16.19l.11.13.05.07,0,0,.2.3c.08.12.15.25.22.37s.19.37.28.55.18.37.26.55.26.59.37.89a1.34,1.34,0,0,1,.07.18h0l.11.29c.11.29.24.62.36,1l.2.59c0,.09.05.18.08.28s0,.21.08.33.07.33.1.5,0,.29,0,.43v0c0,.49.07,1,.09,1.46v.12c0,.53,0,1.11.06,1.68,0,.13,0,.27,0,.4v.05c0,.32,0,.67-.06,1s-.09.7-.14,1-.11.58-.17.9-.13.52-.2.77v0c-.09.3-.19.61-.31.9,0,.06,0,.11-.07.17l-.12.29c-.07.17-.14.34-.22.51v0l-.2.42,0,.12c-.05.12-.1.23-.14.35a.78.78,0,0,0-.05.14h0c-.06-.35-.11-.71-.16-1.07-.13-.88-.25-1.77-.37-2.66-.05-.38-.11-.75-.16-1.12s-.11-.71-.16-1.06l0-.22c0-.33-.09-.66-.13-1l0-.48-.11-1c0-.43-.07-.85-.1-1.27a.51.51,0,0,0-.13-.29.39.39,0,0,0-.26-.15h-.1a.58.58,0,0,0-.18,0l-.14.11a.4.4,0,0,0-.1.18.47.47,0,0,0,0,.21c.11,1,.19,1.8.28,2.53,0,.39.09.77.14,1.16l.12,1c0,.4.09.8.14,1.21.08.68.16,1.38.25,2.08,0,.12,0,.24,0,.35Zm-19,32.74h0l-.34-.39c-.2-.21-.4-.4-.63-.61l-.23-.2-.11-.09-.28-.23-.06,0c-.24-.19-.44-.35-.64-.49-.57-.4-1-.7-1.46-1l-.19-.12c-.21-.12-.42-.25-.62-.39l-.13-.09c-.08-.06-.18-.12-.26-.19l-.18-.14-.18-.14L8.75,66a1.81,1.81,0,0,1-.24-.24l-.08-.09-.17-.19-.17-.19L7.88,65l-.09-.12c-.22-.31-.44-.65-.65-1L7,63.62l-.11-.2h0v0c-.15-.27-.28-.55-.42-.82l-.27-.55c-.2-.38-.41-.76-.62-1.13l-.15-.28c-.32-.59-.61-1.21-.89-1.81-.14-.31-.28-.62-.43-.92l-.71-1.44c-.25-.49-.45-.94-.63-1.36s-.25-.71-.36-1.08-.17-.6-.25-.89l0-.16,0-.18c-.07-.3-.14-.61-.19-.92s-.14-.82-.2-1.26l0-.14c-.11-.78-.22-1.58-.31-2.37-.05-.57-.08-1.06-.1-1.52s0-.81,0-1.2c0-.11,0-.21,0-.32h0c0-.12,0-.25,0-.37v-.2a11.43,11.43,0,0,1,.11-1.23c0-.15.06-.28.09-.4s0-.08.05-.13a1,1,0,0,1,.1-.18l0,0,0,0,0,0v0l0,0,0,0h.11l0,0a1.38,1.38,0,0,1,.23.16,7.73,7.73,0,0,1,.66.6c.12.12.24.26.35.39l.16.18a3.33,3.33,0,0,0,.25.28l.27.3.35.41c.23.26.46.53.7.79l.55.61.14.16c.14.16.28.32.43.47H6a4.05,4.05,0,0,0,.61.56,6.64,6.64,0,0,0,.65.43l0,0,.75.46.17.1.77.48c.25.16.48.34.67.49s.34.29.5.45l.38.45.27.43a6.6,6.6,0,0,1,.32.7A14.33,14.33,0,0,1,11.59,53c.05.22.1.44.14.66a12.17,12.17,0,0,0,.43,1.68c.05.15.11.29.16.44l.24.65c.13.4.25.78.34,1.16a7.62,7.62,0,0,1,.15.82c0,.48,0,1,.06,1.43s0,.64,0,1c0,.78.12,1.56.2,2.32l0,.11h0v.06h0v0h0c.06.53.08,1.08.1,1.6s0,1.09.11,1.63a11.23,11.23,0,0,0,.3,1.65c.07.26.13.5.2.73l0,.1v0h0L14,68.77a5.8,5.8,0,0,1-.34-.52l-.07-.13-.11-.2-.09-.15-.1-.19-.12-.24L13,67.05c-.1-.25-.19-.5-.28-.75l-.33-.89a14.07,14.07,0,0,0-.73-1.59,3.82,3.82,0,0,0-.21-.36l-.25-.36a7.22,7.22,0,0,0-.5-.6l-.07-.07c-.4-.44-.78-.87-1.14-1.33L9.46,61l-.23-.32c-.07-.11-.14-.22-.2-.33l0,0L8.81,60c0-.08-.07-.15-.1-.23a2.14,2.14,0,0,1-.1-.22h0c-.09-.21-.18-.43-.26-.65l-.06-.14h0l0-.13-.06-.14v0l-.05-.12h0c-.13-.35-.29-.72-.47-1.14s-.32-.69-.49-1h0L7,55.94c-.06-.11-.12-.23-.19-.34l-.09-.17-.17-.28,0-.06h0v0l0,0-.07-.13a21.87,21.87,0,0,1-.93-2c-.17-.46-.32-.95-.47-1.41l-.08-.23-.45-1.4-.1-.29c-.31-1-.64-2-1-3.27l-.28-.91c-.08-.25-.17-.5-.25-.74l0-.1c-.09-.26-.19-.51-.28-.76l0-.06-.12-.3,0-.1-.16-.34,0,0,0-.05,0-.08v0a.53.53,0,0,0-.06-.1s0,0-.06,0l0,0s0,0,0,0h0l0,.06v.05l0,0A1.66,1.66,0,0,1,2,43l.06.21,0,.09c.07.34.13.68.2,1s.07.42.11.62c.11.53.21,1.07.34,1.6l0,.08v.1l0,.12,0,.1h0V47l0,.06v0h0c.05.23.12.48.2.8l0,.1.21.75c.09.3.18.59.28.89s.14.45.22.67l.05.16c.18.54.37,1.07.56,1.6.1.28.21.58.34.87s.25.56.37.79c.22.44.43.84.64,1.22.13.23.26.47.4.7l.28.5a9.83,9.83,0,0,1,.46.92l.22.49s0,.09,0,.13L7.3,58l.06.15h0l0,.14.1.26.26.69.05.13c.1.25.2.53.33.79s.14.31.2.44l.2.35,0,0a1,1,0,0,0,.08.14l0,.06.11.16.29.4c.12.15.25.32.4.48l.47.53.18.19.26.27.26.29.16.2,0,0,0,0c.06.09.12.17.17.26l.13.2a.75.75,0,0,0,.07.12h0c.11.21.22.42.32.66,0,.07.07.15.11.23l.15.34.12.3h0v0l0,0,0,.09L12,66h0v0c.07.18.13.37.2.55l.08.22,0,.11c0,.11.09.22.14.34s.08.23.14.34,0,.09.07.13a2.8,2.8,0,0,0,.14.25.71.71,0,0,0,.1.14l.12.2a4,4,0,0,0,.22.34l.24.33.06.08a12.05,12.05,0,0,1,.68,1.07l.18.29ZM35.64,180.11a.78.78,0,0,0,0-.14,2.59,2.59,0,0,0,.11-.37l0-.12L36,179v0c0-.18.1-.36.14-.53a2.81,2.81,0,0,1,.1-.31,1.09,1.09,0,0,1,.05-.17c.09-.3.2-.61.31-.9v0c.1-.23.2-.48.32-.72s.28-.55.43-.81.33-.59.52-.88.41-.6.6-.86l0,0c.08-.1.16-.21.25-.31.36-.45.74-.88,1.09-1.29l.08-.09c.31-.36.63-.73,1-1.08l0,0,.31-.3q.2-.18.39-.33l.51-.38.52-.34.61-.37.54-.32h0l.17-.1c.27-.16.55-.31.84-.46l.54-.27.57-.26.4-.15.34-.11h0l.08,0,.17,0,.24-.05h0l.26,0,.17,0,.3,0H48l.86-.1.79-.11h0l.89-.13.82-.14,1.41-.27.27,0,1.59-.31.71-.12.11,0h0l-.06,0-.06,0-.92.57-.63.34c-.43.21-.85.43-1.27.65-.87.45-1.78.92-2.69,1.31a9.26,9.26,0,0,1-1,.36l-.41.13-.06,0-.12,0a2.4,2.4,0,0,0-.38.12l-.08,0-.21.08-.25.12-.48.27c-.29.19-.6.4-.94.65l-.16.12c-.24.19-.5.38-.72.59l-.39.37-.06.07-.13.12,0,0-.08.09a.2.2,0,0,0,0,.11.15.15,0,0,0,.06.09l.05,0c.09,0,.15-.06.21-.13l0,0a1.21,1.21,0,0,1,.16-.16l.08-.07.41-.37.5-.37.55-.34.52-.29.46-.22.06,0h0l.06,0,.27-.1.25-.08h0l.57-.13.61-.14c.42-.1.83-.24,1.18-.36s.72-.25,1.1-.4l.33-.12.67-.25,1.05-.45.22-.09a7.92,7.92,0,0,0,.78-.37,8.24,8.24,0,0,0,1-.63l.5-.36.43-.34,0,0c.13-.11.26-.21.38-.33l.12-.12,0,0,.11-.13a1.28,1.28,0,0,0,.09-.22h0l.29-.06h0l0,0,0,0c-.12.2-.26.39-.39.57l0,.07-.49.69,0,.07L56,168l-.36.5h0l0,.05-.06.07c-.11.15-.22.29-.32.44h0l-.17.23c-.08.11-.17.22-.25.34h0l0,0-.17.22-.26.35,0,0-.54.69c-.35.44-.71.87-1.13,1.37l-.37.42-.18.21c-.11.13-.22.25-.34.37l-.18.19-.3.3-.11.11-.28.26-.05.05-.07,0-.28.25-.17.14-.26.21-.07.05-.06.05-.13.09-.09.07-.17.12-.21.15-.44.3-.75.5c-.25.17-.51.33-.77.49l-.55.34-.1.06-.2.11-.2.11-.27.14,0,0-.08,0-.24.12-.12,0-.27.12-.32.12-.11,0-.31.11h0l-.07,0-.29.09-.42.11-.27.06-.15,0-.3.06h-.06l-.64.11-.21,0-.16,0c-.48.07-1,.16-1.45.26l-.86.2c-.27.06-.54.13-.8.21h0c-.24.07-.48.15-.75.25l-.56.2h0l.25-.25,1.49-1.48.86-.86.73-.72c.28-.27.56-.54.83-.82l1.79-1.8a.5.5,0,0,0,.16-.38.61.61,0,0,0-.05-.18.44.44,0,0,0-.12-.15l-.08,0a.34.34,0,0,0-.14-.05.47.47,0,0,0-.43.16l-.88.92-.68.69L41,175l-.17.17-.36.35-.35.34L40,176l-.38.36-.4.38-.83.78-1,.95-1,.9-.38.36-.41.38Zm-.17-101.3a1.59,1.59,0,0,0-.06-.3.5.5,0,0,0,0-.12L35.3,78c-.08-.33-.16-.65-.25-1l-.18-.65c-.09-.34-.18-.69-.28-1s-.1-.43-.14-.66-.08-.5-.12-.74l0-.45a.92.92,0,0,1,0-.16v-.47c0-.1,0-.2,0-.3s0-.22,0-.32,0-.11,0-.16c0-.3.07-.6.11-.89,0-.13,0-.25.07-.37l.06-.24a.29.29,0,0,0,0-.09h0v0c.06-.17.11-.34.17-.51l.18-.47,0,0c.1-.21.19-.4.29-.58l.22-.31c.1-.13.22-.25.33-.37l.06-.07.41-.44a9.29,9.29,0,0,0,.6-.76c.09-.15.18-.29.26-.45a4.66,4.66,0,0,0,.25-.5,15.14,15.14,0,0,0,.73-2l.07-.25,0,0c.07-.24.15-.48.23-.72a.75.75,0,0,0,0-.16c0-.09.07-.19.11-.29l.1-.25.08-.19c.08-.17.16-.37.26-.55s.2-.36.3-.54l0-.05c.12-.2.23-.37.35-.55s.25-.36.38-.53l.39-.42a11.28,11.28,0,0,1,1-.83l.28-.22.71-.54.74-.59c.35-.28.71-.57,1.08-.85l.13-.09.12-.09.52-.38.61-.43.16-.11.11-.08.39-.26c.13-.09.26-.19.39-.27l.5-.24.58-.24h0l.05,0,.08,0h0s0,.06,0,.09l0,.54c0,.31,0,.62,0,.93v.22c0,.42,0,.83.07,1.25,0,.2,0,.39,0,.57l0,.16h0c0,.14,0,.29,0,.43.06.47.13.88.2,1.26s.15.74.23,1.09l.09.42c.15.63.3,1.29.42,1.94.18.91.32,1.91.45,3.14,0,.31.06.65.07,1v0c0,.35,0,.71,0,1.09s0,.66-.06,1-.08.72-.12,1l-.09.52c0,.17-.09.35-.14.53s-.2.66-.34,1-.28.69-.42,1-.39.83-.59,1.21-.38.73-.58,1.07-.4.62-.62,1l-.09.11c-.08.13-.17.25-.26.38a5.32,5.32,0,0,1-.36.47,2.62,2.62,0,0,1-.22.25l-.32.27c-.22.15-.45.29-.67.42l-.21.12-.13.07h0l0,0h0l-.12.07L44,79l-.59.28-.33.14-.73.34c-.19.09-.37.18-.54.28s-.34.19-.49.29l-.52.35-.08.06c-.13.1-.26.2-.38.31l-.23.21a1.54,1.54,0,0,0-.19.17l-.08.08-.17.19-.17.19,0,.05a9.7,9.7,0,0,0-.73.91c-.22.3-.44.63-.65,1l-.27.42a.76.76,0,0,0-.08.11l-.12.17-.09.14h0l.06-.14c.21-.54.41-1.09.63-1.7l0-.09c.18-.48.36-1,.56-1.46.07-.15.15-.29.23-.45l.4-.59,0,0c.17-.24.34-.5.51-.77s.43-.75.62-1.12l.19-.35c.16-.3.34-.6.5-.89l.36-.63.1-.18c.23-.42.46-.84.7-1.26q.2-.33.39-.69A16.11,16.11,0,0,0,43.94,72c.19-.52.36-1,.53-1.56v0l.08-.24c.15-.44.29-.89.44-1.33l.25-.79c.06-.16.11-.33.17-.49.16-.5.3-1,.42-1.43s.23-.9.33-1.34c0-.13.06-.26.08-.4.08-.35.15-.7.21-1,0,0,0,0,0-.08h0v0h0l0-.28c0-.16.06-.32.08-.48l0-.16c0-.19.06-.38.08-.57a7.44,7.44,0,0,0,0-1.49c-.09.24-.19.5-.28.76s-.16.53-.22.8-.07.38-.1.57,0,.19,0,.28c-.06.29-.11.58-.16.87-.11.56-.23,1.14-.38,1.72-.06.25-.13.5-.2.78s-.16.57-.26.9c0,.17-.11.34-.17.51-.12.38-.25.77-.36,1.16l0,.13,0,.13c-.13.43-.27.86-.4,1.3l-.17.54c-.09.28-.18.58-.29.89s-.22.63-.36.95-.22.47-.34.72l-.4.77c-.18.33-.37.65-.55,1-.1.16-.19.32-.28.48l-.2.35L40.79,77l-.47.82-.38.64-.09.16,0,.06,0,0h0l-.07.11c-.12.19-.24.39-.37.58s-.35.48-.53.7a4.41,4.41,0,0,0-.46.7c-.14.26-.25.53-.38.82l-.26.66-.07.17-.3.79-.31.79-.3.75c-.3.75-.53,1.42-.73,2h0c-.05.11-.11.21-.16.31h0c0-.35,0-.67,0-1,0-.87,0-1.66-.06-2.41s-.06-1.62-.11-2.43c0-.43,0-.86-.08-1.29,0-.14,0-.28,0-.42l0-.18c0-.13,0-.27,0-.41Zm-1.32,17v-.15c0-.14,0-.27,0-.41v-.06a1.48,1.48,0,0,1,0-.21l0-.32c0-.16.06-.3.1-.44l.09-.23a.54.54,0,0,1,.07-.13l.08-.12.23-.24,0,0h0l0,0c.13-.12.25-.24.39-.35l.29-.23,0,0,.38-.24.65-.32.61-.3.41-.21.85-.45.06,0h0l.21-.11,0,0,.11-.06L39,91l.21-.11h0l.14-.08.16-.09a6.39,6.39,0,0,1,.64-.3,3.69,3.69,0,0,1,.5-.17l.32-.05a3,3,0,0,1,.42,0l.34,0,.41.1c.13.05.26.09.39.15h0l.29.15.34.19.35.2.34.2a4.69,4.69,0,0,0,.46.22,2.12,2.12,0,0,0,.41.12l.06,0H45s0,.07,0,.11v.14c0,.12,0,.24,0,.36l-.06.37-.12.69c-.09.47-.16.94-.23,1.41-.11.73-.21,1.46-.34,2.18h0c0-.13.09-.27.14-.41h0l0-.08h0v0h0l0-.06h0l.15-.4h0a.36.36,0,0,0,0-.09v0l0-.08h0l0,0a3,3,0,0,0,.1-.32s0-.11,0-.17,0-.12.05-.18q.07-.35.12-.69c0-.25.08-.51.12-.76s.06-.47.09-.7,0-.44.08-.65a1,1,0,0,0,0-.16,1.21,1.21,0,0,1,0-.19.86.86,0,0,1,0-.16v-.15a2.32,2.32,0,0,0,.58-.08,2.51,2.51,0,0,0,.46-.16,3.65,3.65,0,0,0,.44-.26l.06,0c.13-.08.27-.18.42-.26l.32-.15.32-.1.34-.06h.3l.23,0,.35.08.32.12.33.17L50,91a3.5,3.5,0,0,1,.28.27,3.41,3.41,0,0,1,.28.33,6.65,6.65,0,0,1,.36.56l0,.06h0v0a2.45,2.45,0,0,1,.16.33l.05.17a6.69,6.69,0,0,1,.11.67,5.74,5.74,0,0,1,0,.6c0,.21,0,.43-.06.64v.1c-.05.29-.1.58-.16.87S51,96,51,96.21l0,.2-.07.22-.07.24-.09.25-.06.16-.17.47c0,.16-.11.31-.16.47-.19.54-.37,1.1-.56,1.72l-.06.17a2,2,0,0,1-.08.26l0,.06v0c-.16.52-.31,1.07-.48,1.81l-.12.5c-.09.44-.2.89-.31,1.33s-.17.62-.27.93c0,.12-.07.23-.1.34l0,.09-.18.55c-.1.26-.22.57-.35.87l-.19.35c-.1.15-.21.3-.32.44h0l-.05.06-.27.29-.18.14-.05,0-.06,0,0,0,0,0h0l-.14.09-.12.06h0l-.05,0a3.61,3.61,0,0,0-.39-.22l-.15-.06-.34-.13h0l.19-.27.07-.09.21-.33a.83.83,0,0,0,.08-.12l0,0L46,107l.06-.12,0-.08,0-.06,0-.06,0,0c.05-.12.1-.23.15-.36s.16-.42.22-.63.21-.65.29-1,.15-.67.2-1v0h0l.06-.35v-.07a1.43,1.43,0,0,0,0-.29c0-.25,0-.5,0-.76s0-.49,0-.72,0-.45,0-.67,0-.6-.06-.9l0,.19c0,.2-.06.39-.08.59v.12l-.06.44,0,.27c0,.25,0,.47-.07.67s0,.23,0,.35l0,.39c0,.16,0,.34-.06.5v.07c-.06.33-.11.61-.17.87s-.14.57-.21.83v0l0,.06c-.06.21-.13.42-.2.63l0,.1c0,.09-.07.19-.1.29l-.12.3v0h0a.37.37,0,0,0,0,.11v0l0,.08a2.7,2.7,0,0,1-.24.44l0,0-.11.17-.07.12-.2.31h0v0c-.22-.07-.43-.12-.63-.17l-.33-.06a7.28,7.28,0,0,0-.8-.1h0v-.13l0-.17v0l0-.09,0-.2,0-.09a1.7,1.7,0,0,0,0-.22l.09-.63a12.67,12.67,0,0,0,.1-1.32v0c0-.33,0-.67,0-1v-1c0-.2,0-.39,0-.58l-.06.29c0,.17-.07.34-.1.51s-.09.5-.11.69c-.06.44-.11.89-.16,1.41l-.06.85c0,.2,0,.4,0,.61s-.06.68-.11,1h0a8.11,8.11,0,0,0-1.1,0l-.39,0-.8.12h0c0-.16,0-.32,0-.47s0-.55-.06-.78,0-.45,0-.66l0-.46c0-.16,0-.31,0-.46l0-.62c0-.2,0-.42,0-.64s-.06-.47-.1-.74,0-.32-.08-.49l0-.2-.09-.65c0-.23-.05-.46-.06-.7l0,.19,0,.18c0,.2,0,.39-.07.58v.07c0,.08,0,.17,0,.25v.09a2.35,2.35,0,0,0,0,.26c0,.56,0,1,0,1.51s.07,1,.11,1.46c0,.14,0,.28,0,.42l0,.16c0,.12,0,.23,0,.35v.16a2.93,2.93,0,0,1,0,.29l0,.1s0,.07,0,.11a2,2,0,0,0,.05.26c0,.08,0,.16,0,.24s0,.17,0,.26c-.54.13-1.07.28-1.51.42s-.6.19-.89.3l-.12,0h0a2.58,2.58,0,0,0,0-.39v-.07c0-.27-.07-.56-.13-.87,0-.15-.06-.31-.1-.47l0-.11c0-.12-.07-.25-.11-.37s-.11-.32-.17-.48a3.79,3.79,0,0,0-.18-.42l-.08-.19c-.24-.51-.47-1-.75-1.54l-.05-.09c-.09-.16-.18-.32-.28-.48s-.23-.38-.35-.57l-.13-.2c-.06-.11-.13-.22-.2-.33s-.23-.38-.34-.58-.19-.41-.27-.61l0-.05-.06-.16-.07-.21a2.68,2.68,0,0,1-.07-.27l0-.07a2,2,0,0,1-.06-.3c0-.09,0-.18,0-.26s0-.27-.05-.4l0-.16a2.11,2.11,0,0,0,0-.25v-.15c0-.09,0-.17,0-.26V98.1c0-.24,0-.48,0-.73C34.14,96.84,34.15,96.3,34.15,95.76Zm.54,12.69a2.72,2.72,0,0,0,0-.28c0-.71.08-1.41.12-2.11v0h0l0,.05h0v0h0v0h0c0,.09.07.18.11.26.17.44.3.89.46,1.33s.36,1,.53,1.42l.09.26h0l-.11,0-.12-.05-.25-.13-.22-.16-.22-.19c-.08-.06-.14-.14-.21-.2h0Zm1.7.82-.06-.16-.27-.73-.24-.67c-.08-.23-.16-.46-.23-.69s-.11-.4-.17-.59-.15-.41-.22-.61-.21-.68-.31-1c0-.67,0-1.35,0-2l.05.07c.16.26.34.52.49.79l.18.32c.17.34.34.67.5,1l.42,1c.05.12.09.24.13.36l.1.37c.12.56.21,1.13.28,1.7,0,.13,0,.26,0,.39s0,0,0,.08l-.11,0C36.79,109,36.59,109.15,36.39,109.27ZM24.56,56.62c.2.13.39.27.55.39s.35.29.53.47a8.48,8.48,0,0,1,.56.69c.09.11.17.23.25.35s.15.25.21.36.17.32.24.48.1.26.16.39l0,.08c.18.48.35,1,.5,1.51s.29,1,.41,1.54l0,.18,0,.15c0,.08,0,.15,0,.23l0,.13v0a1.18,1.18,0,0,1,0,.2s0,.09,0,.13a2.17,2.17,0,0,1,0,.25v.1c0,.45.07.86.09,1.24,0,.19,0,.37,0,.58v.64c0,.17,0,.32,0,.47s0,.29,0,.42-.06.54-.1.86c0,.1,0,.2-.07.3v.07h0l0,0-.05-.13-.11-.3-.38-.92c-.22-.51-.48-1.06-.79-1.66s-.57-1.07-.88-1.62c-.19-.34-.4-.69-.6-1L25,62.64c-.15-.24-.29-.49-.43-.74s-.29-.53-.44-.78-.41-.69-.62-1l-.31-.51-.12-.19,0,0-.11-.16a.75.75,0,0,0-.37-.24h-.09a.16.16,0,0,0,0,.08.7.7,0,0,0,0,.43.66.66,0,0,0,.09.19l0,0,.07.14,0,.08.25.44v0l.42.76h0c.12.22.24.44.35.66l.5.93.58,1,.31.54c.1.17.2.34.29.52l.34.6L26,66l.07.13h0l0,.05v0h0v.07l0,0h0l0,.05v0h0l0,0h0c.27.5.5,1,.71,1.43s.38.88.53,1.26h0a3.82,3.82,0,0,0-.36-.13L27,69l-.5-.19-.1,0-.35-.15-.17-.07c-.31-.14-.59-.27-.86-.41l-.3-.14-.48-.24-.41-.2-.42-.2-.12,0-.71-.36-.69-.4-.43-.28L21.09,66h0l0-.33h0c0-.16,0-.33,0-.5s0-.36,0-.55v-.14c0-.21,0-.43,0-.65s0-.43,0-.65l.06-.78c0-.2.06-.4.09-.59v-.1c0-.22.09-.45.14-.68l.2-.74,0-.05c.06-.19.12-.38.19-.57l.13-.31c0-.11.08-.21.13-.32.17-.36.35-.7.55-1s.45-.7.67-1l.06-.09.21-.31c.07-.1.13-.21.19-.31h0A7,7,0,0,1,24.56,56.62ZM17,44.2c0-.38,0-.75.09-1.12s.1-.75.16-1.16c0-.2.07-.39.11-.58s.11-.44.16-.64l0-.05a5.08,5.08,0,0,1,.17-.51c.07-.21.15-.4.23-.58v0c.08-.16.17-.33.25-.5l.25-.42,0-.06.44-.63c.11-.16.24-.31.36-.46l.12-.15v0c.28-.35.57-.7.87-1s.61-.73.91-1.11c.13-.16.24-.33.37-.49.33-.44.64-.87.94-1.3.11-.15.23-.31.33-.46l.14-.21.93-1.32c.32-.44.67-.91,1.15-1.52.27-.34.6-.74.95-1.11l0,0h0v.56a.66.66,0,0,0,0,.14h0v.09h0c0,.61-.05,1.22-.08,1.82l0,.27c0,.65-.05,1.34-.07,2.09h0v0h0l0,.56c0,.35,0,.71,0,1.07s0,.73,0,1.09c0,1,.07,1.92.12,2.87,0,.48.05,1,.08,1.45s.05.84.07,1.27v.22l.06,1.17v.16c0,.41,0,.83,0,1.24s0,1.07,0,1.58v.09c0,.2,0,.4,0,.59L26,48c0,.21,0,.42-.07.65s-.07.49-.12.78-.11.58-.18.87-.12.48-.19.71l0,.1c-.14.44-.28.85-.43,1.24s-.29.74-.47,1.15c-.34.72-.66,1.37-1,2h0a.32.32,0,0,0-.18.22.49.49,0,0,0,0,.12h0l-.12.2v0h0c-.14.23-.29.46-.44.69-.28.43-.56.89-.81,1.35l-.17.31c-.12.23-.22.45-.31.67s-.17.42-.25.63c-.13.39-.25.82-.38,1.34,0,.17-.08.36-.11.56h0c0-.13,0-.27,0-.4s0-.33-.05-.49v-.06q-.06-.43-.12-.84V59.7L20.48,59c-.06-1-.11-1.79-.16-2.53q0-.58-.06-1.17c0-.39,0-.77,0-1.14a.76.76,0,0,0,0-.15.27.27,0,0,0-.07-.14.21.21,0,0,0-.1-.06H20c0-.24.05-.47.07-.7a.77.77,0,0,0,0-.15c0-.22.06-.42.09-.61v0c0-.11,0-.23.05-.35h0v0c.11-.67.21-1.24.33-1.81s.28-1.13.44-1.66v0h0v0c.11-.35.24-.77.4-1.19s.3-.79.46-1.17l0-.05c.16-.41.34-.82.51-1.23.08-.19.16-.38.24-.59s.16-.42.24-.65a2.47,2.47,0,0,0,.1-.29c0-.09.06-.18.09-.29l0-.15.12-.44,0-.16a3.78,3.78,0,0,0,.1-.46,1.42,1.42,0,0,0,0-.2c0-.16.06-.32.08-.48.05-.43.09-.87.13-1.35s.06-.82.08-1.22l0-.21c-.12.54-.23,1.09-.37,1.69-.06.29-.13.58-.2.87s-.1.39-.15.58l-.06.22-.07.22c-.11.38-.23.76-.36,1.13l-.26.69c-.07.19-.15.39-.23.57l0,.11c-.09.2-.17.4-.26.59l-.33.77c-.22.55-.39,1-.54,1.38a25.32,25.32,0,0,0-1.24,5.56c0,.24-.05.47-.07.7v0a3.7,3.7,0,0,0,0,.65c0,.39,0,.79.06,1.17l0,.23v0c0,.12,0,.25,0,.38v.12h0c-.18-.54-.39-1.09-.62-1.65-.15-.34-.29-.69-.44-1-.06-.12-.11-.25-.17-.38-.13-.3-.26-.6-.38-.9s-.18-.49-.26-.74-.07-.24-.1-.36l-.09-.32,0-.07-.15-.76c-.05-.22-.07-.45-.1-.67v-.15c-.07-.75-.12-1.53-.18-2.27v-.17c0-.37,0-.76-.06-1.25S17,44.57,17,44.2Zm3.2,21h0c-.06-.06-.11-.13-.16-.19-.23-.32-.46-.67-.69-1l-.05-.08-.32-.5L18.75,63l-.08-.12A31.16,31.16,0,0,1,17.29,60v0c-.08-.23-.17-.46-.24-.7s-.17-.56-.23-.82-.14-.61-.2-.91-.11-.58-.15-.84l-.05-.25c-.09-.52-.19-1.07-.3-1.6s-.27-1.22-.39-1.83l-.06-.34c-.09-.47-.18-1-.26-1.45,0-.24-.06-.48-.09-.74,0,0,0-.09,0-.14h0l.25.18.05,0,0,0h0l.38.31.12.11a1.9,1.9,0,0,0,.21.19,3.77,3.77,0,0,0,.59.39h0c.11.35.23.7.37,1s.3.68.46,1l.11.24c.16.34.3.66.42,1s.25.58.35.85.33.88.48,1.36c.07.23.13.46.2.7s.13.49.2.76.08.33.11.51.08.36.11.54.08.5.11.77c0,0,0,0,0,.08a1.5,1.5,0,0,1,0,.2v.1s0,.05,0,.07v.05a.34.34,0,0,1,0,.1V61c0,.1,0,.2,0,.31s0,.42,0,.62v0l0,.47v.05c.05.65.09,1.29.13,1.94l.06.77Zm5.16,23.3c-.24-.92-.45-1.85-.69-2.77-.12-.5-.26-1-.41-1.48l-.51-1.59c-.16-.48-.3-1-.44-1.46s-.3-1.07-.44-1.6-.19-.82-.28-1.22-.2-.83-.27-1.25c-.16-.9-.27-1.8-.39-2.7,0-.19,0-.38,0-.58-.06-.91-.14-1.81-.22-2.72-.12-1.29-.27-2.57-.43-3.85h0l.44.23.43.19c.29.13.59.25.88.35.56.21,1.13.39,1.7.57l.73.23.32.09.45.11.62.13.36.06.4.09,0,.07,0,0c.1.27.21.55.3.82s.2.59.29.88.19.59.27.89.18.59.25.89l.21.8c.06.24.11.48.17.73a2.21,2.21,0,0,1,.05.25l.09.45c.05.23.07.47.11.7s.06.45.08.67h0c0,.34.07.68.1,1s.06.63.06.94a.17.17,0,0,0,.07.13q-.16,1.32-.27,2.64c-.11,1.63-.21,3.26-.29,4.89L29,88.12h0c0,.79-.05,1.58-.06,2.37s0,1.6,0,2.4.06,1.57.09,2.36.09,1.61.14,2.41c0,.6.1,1.2.17,1.8L29.11,99l-.41-.89c-.26-.59-.5-1.19-.73-1.78-.32-.86-.61-1.72-.9-2.58s-.56-1.63-.85-2.43l-.29-.8C25.73,89.86,25.55,89.18,25.37,88.5ZM17.29,103h0l-.1,0-.09,0-.4-.1-.45-.11-.29-.06-.72-.17-.81-.19-.36-.09-.13,0-.27-.08-.16,0-.13,0-.47-.15-.75-.27-1.09-.43-.18-.08-.23-.1-.18-.08-.33-.16-.09,0-.26-.14-.19-.12-.2-.11-.18-.12-.13-.09a.6.6,0,0,1-.13-.09l-.18-.12-.28-.19-.93-.7L7,98.5l0-.06,0,0-.06-.07c-.22-.23-.42-.47-.6-.7l-.59-.78-.22-.29L5,96l-.05-.07c-.23-.31-.45-.62-.66-.92s-.39-.62-.58-.94l-.07-.13-.08-.14,0,0,0,0c-.06-.11-.11-.22-.16-.33s-.13-.28-.2-.43-.09-.26-.14-.4,0-.06,0-.08-.06-.19-.08-.29l0-.07V92c-.05-.21-.1-.43-.14-.66s0-.28-.07-.42l-.06-.42c-.06-.36-.1-.73-.14-1.09,0-.15,0-.29,0-.44-.07-.5-.13-1-.2-1.51S2,86.47,2,85.94c-.19-1-.39-2-.59-3-.11-.51-.22-1-.34-1.55,0-.18-.08-.36-.12-.54s-.14-.64-.2-1-.08-.38-.11-.59a6.17,6.17,0,0,1-.09-.62v-.06h0l.46.53c.2.2.38.38.56.53s.38.32.62.51l.45.33.2.15a3.77,3.77,0,0,0,.39.26l.44.24.18.09.09,0,.09,0,.28.12.12,0,.25.1.1,0c.21.08.43.15.66.22l.16,0,.61.19.23.09.1,0,0,0a2.34,2.34,0,0,1,.24.09l.07,0a2.58,2.58,0,0,1,.37.19,2.62,2.62,0,0,1,.34.24l0,0,.35.3.13.13.13.13.05.06.1.1.42.48.52.6a11.62,11.62,0,0,0,1.07,1l.54.46.45.38.32.28.13.11.12.13,0,0,.1.1.14.14.08.1,0,0,.17.2.1.14,0,.06.13.17c.22.33.43.65.63,1l.1.16.22.38.2.36.06.11.06.11h0v0l0,.05.08.14.24.45.15.27.22.42.12.23.24.47.2.42.14.27c0,.09.08.17.11.25l.06.13,0,.09a1.76,1.76,0,0,1,.09.2l.11.27L16,94l.15.4,0,.13s0,.11.05.17l0,.07,0,.11.06.18c0,.06,0,.12.05.17l0,.1,0,.09a1.21,1.21,0,0,1,0,.18c.05.18.09.37.14.55l0,.07L17,97.7,17,98c.08.36.16.74.25,1.11l0,.06c.06.25.12.5.19.75s.14.51.23.79.14.44.21.64l.28.82,0,.09,0,.1h0L18,102l-.5-.65-.31-.4-.37-.46c-.38-.5-.78-1-1.16-1.52-.55-.75-1-1.37-1.38-2l-.78-1.25c-.2-.32-.39-.64-.6-1a15.88,15.88,0,0,0-1.44-2c-.29-.35-.57-.66-.84-.94s-.55-.58-.81-.9l-.09-.13-.1-.12c-.47-.65-.9-1.3-1.29-1.93s-.82-1.39-1.2-2.06v0c-.17-.32-.35-.67-.55-1.08s-.35-.71-.52-1l-.12-.24v0a.41.41,0,0,0-.07-.11.14.14,0,0,0-.1-.08l0,0a.14.14,0,0,0-.13,0,.2.2,0,0,0-.06.12.45.45,0,0,0,0,.12.41.41,0,0,0,0,.09.2.2,0,0,0,0,.08l0,.07.1.19,0,.07.1.2.16.32c0,.11.1.22.16.33s.23.5.36.74.27.49.42.75.13.23.21.35l.46.81c.24.42.49.86.75,1.28s.63,1,1,1.54c.21.3.45.59.68.87l.4.5.31.42.32.48q.3.47.6,1l.68,1.35.47.93c.17.35.37.72.59,1.09.09.16.19.34.3.52s.23.37.35.55c.24.34.49.69.75,1s.54.7.83,1.06l.58.7.19.22c.11.12.21.25.32.38l.48.57.05.06Zm13.85,14.27-.06,0a6.48,6.48,0,0,0-.64.34l-.07,0c-.13.08-.26.14-.39.21l-.4.2-.4.18-.46.19-.11,0-.06,0h0l-.63.23-.63.19c-.22,0-.47.09-.74.13h-.17c-.31,0-.64,0-.95.06h-1l-.44,0c-.29,0-.59,0-.93-.1l-.63-.08c-.34-.06-.72-.15-1.14-.26l-1.09-.3-.6-.21-.66-.27c-.24-.11-.48-.24-.71-.37a4.85,4.85,0,0,1-.41-.29,2.44,2.44,0,0,1-.29-.27l-.24-.3a13.29,13.29,0,0,1-.69-1.14,1.11,1.11,0,0,1-.09-.19l-.09-.18a1.83,1.83,0,0,1-.08-.25l0-.13c0-.05,0-.09,0-.13h0a3.87,3.87,0,0,1,.06-.46,3.25,3.25,0,0,1,.08-.38l0-.13h0v.11a2.52,2.52,0,0,0,.17.72,3,3,0,0,0,.79,1.13,5.65,5.65,0,0,0,1.23.74,6.19,6.19,0,0,0,.6.23l.06,0,.37.13.32.13.19.08.49.19a3,3,0,0,0,.35.09l.34.1.18,0c.19,0,.38.06.58.09h.05c.22,0,.44.06.67.07h.69l.31,0,.31-.08.55-.2.37-.13.14,0,.13,0h.11l.2,0h0c.22,0,.42.1.58.14l.12,0c.21.07.41.13.62.18a3.88,3.88,0,0,0,.49.11l.23,0,.34,0,.38,0h0a5.61,5.61,0,0,0,.71,0,3.08,3.08,0,0,0,.46-.05l.22,0a1.2,1.2,0,0,0,.24-.06l.37-.11.65-.18.21,0h.06Zm1.33-4h0l-.18-.08-.29-.15-.2-.1-.12-.06-.26-.15-.23-.13-.08-.05-.19-.1-.34-.19-.6-.36-.39-.25-.12-.07-.13-.09c-.15-.09-.29-.19-.44-.27a10,10,0,0,0-1.19-.59l0,0-.25-.11-.54-.26c-.16-.08-.32-.18-.48-.28s-.39-.25-.57-.38l.15.17c.15.16.3.33.45.48a6,6,0,0,0,.58.53,14.65,14.65,0,0,0,1.32,1,12.18,12.18,0,0,0,1.53.86l.56.26.23.1.38.17.15,0,.2.07.43.15.18.07h0l.07,0h.1l.17,0h0a5.3,5.3,0,0,0-.41,1.09,7.12,7.12,0,0,0-.16.85h0l-.22-.07-.07,0a4.52,4.52,0,0,0-.47-.11h0l-.3-.07-.28-.06-.84-.17-.33,0-.47-.09h0l-.11,0h-.14l-.18,0-.2,0-.17,0h-.08l-.56-.09.25.09.49.19.31.11.24.08h0l.1,0,.42.11.14,0,.13,0h.06l.32,0,.34,0,.13,0c.1,0,.2,0,.3,0l.49.06h0l.16,0,.42.1.11,0h0a8.25,8.25,0,0,0,0,1h0c0,.08,0,.15,0,.23h0l-.2,0H31.2L31,117l-.07,0-.1,0a2.61,2.61,0,0,1-.27.06h0l-.37.07-.34,0h-.41l-.36,0h-.15c-.52-.1-1.05-.22-1.58-.37l-.61-.21-.07,0a5.45,5.45,0,0,0-.74-.23l-.11,0a1.72,1.72,0,0,0-.64,0,2.11,2.11,0,0,0-.38.1l-.31.12-.38.13-.28.08-.31,0h-.32a14.62,14.62,0,0,1-1.51-.14l-.12,0h-.05c-.22,0-.43-.09-.68-.16l-.18-.06c-.23-.08-.46-.15-.7-.21l-.35-.1-.49-.14a3.61,3.61,0,0,1-.46-.17,2.79,2.79,0,0,1-.34-.18l-.34-.24-.24-.22-.12-.16a3.87,3.87,0,0,1-.24-.37l0,0c-.06-.11-.11-.22-.17-.36L17,114c0-.11,0-.22-.06-.36s0-.38,0-.57,0-.38,0-.59,0-.3,0-.46h0a2.6,2.6,0,0,1,.1-.25,5.24,5.24,0,0,1,.28-.53l.05-.08c.14-.23.28-.46.4-.7A3.65,3.65,0,0,0,18,110a2.4,2.4,0,0,0,.1-.48,4.51,4.51,0,0,0,0-.9c0-.3-.08-.6-.13-.9l0,.07c.05.05.08.12.13.18a1.1,1.1,0,0,0,.25.17l.1.06.24.15.52.3A7.76,7.76,0,0,0,20,109l.42.16.41.13.45.11.38,0,.62,0,1,0h0L22,109.24h0a5.39,5.39,0,0,1-.66-.18,13.73,13.73,0,0,1-1.29-.61c-.25-.14-.5-.28-.74-.44L19,107.8l-.21-.13-.09,0-.16-.08h0c-.23-.24-.44-.5-.66-.75l-.08-.12c0-.06,0-.13,0-.2l0-.26v0a2.21,2.21,0,0,1,.05-.25l.09-.33c0-.12.09-.25.14-.38l.12-.3,0-.09,0-.1.28-.69.12-.32v0l0-.07.08-.21a1.34,1.34,0,0,1,.07-.18c.12-.32.23-.58.34-.83s.19-.39.32-.61l0,0c.06-.09.12-.19.19-.28l.25-.33.21-.22a3.92,3.92,0,0,1,.33-.27l.33-.2.32-.2a5.4,5.4,0,0,1,.64-.3l.21-.07.23,0h.29l.26.06a10.25,10.25,0,0,1,1,.4,15.69,15.69,0,0,1,1.44.79h0l0,0h0l.05,0,.06,0,.72.47a3.93,3.93,0,0,0,.41.26,2.61,2.61,0,0,0,.37.19c.24.11.5.21.78.31s.57.2.9.29l0,0h.06l.06,0h.1l.41.15c.13.06.25.13.37.2l.29.21h0l0,0,0,0h0l.19.18c.22.25.42.52.61.78l.25.33a6.89,6.89,0,0,0,.46.56l.43.45.1.11h0c.14.14.31.33.47.52s.28.35.44.57l0,.07c.15.22.32.44.49.66s.37.47.59.72a7.82,7.82,0,0,0,.66.63,3.44,3.44,0,0,0,.36.28l.13.09.07.05a3.42,3.42,0,0,0,.36.2l.28.11h0c-.13.08-.26.16-.38.25s-.38.29-.57.45a.46.46,0,0,0-.07.07h0l-.07.07-.49.45h0l0,0-.2-.17-.06,0-.14-.11-.14-.11-.45-.33L33,110l-.52-.39-.59-.45h0l-.58-.46-.15-.11h0l-.24-.21-.11-.1c-.08-.06-.16-.14-.24-.21l-.09-.09a2.28,2.28,0,0,1-.22-.22l-.1-.09-.23-.24,0,0,0,0,0,0-.11-.11-.09-.09,0,0-.81-.87c-.24-.24-.46-.46-.67-.65a9.93,9.93,0,0,0-.76-.65l0,0-.25-.21-.23-.19-.21-.17-.34-.29-.31-.28-.06-.06c.05.08.09.16.14.23s.16.28.25.42.28.42.45.65.52.67.88,1.08.57.61.86.9l.2.22.48.48c.18.17.33.32.49.46l.27.24.16.13.06,0,0,0,.14.11.15.11.15.11a2.82,2.82,0,0,0,.31.21l.14.11.16.09.06,0,0,0a1.37,1.37,0,0,0,.2.13h0c.39.25.75.46,1.1.67l.29.16.2.12.53.31h0l.07,0h0s0,0,0,0,0,0,0,0a0,0,0,0,0,0,0h0a.22.22,0,0,1,.08,0H34l0,0,0,0h0l-.08.09a4.09,4.09,0,0,0-.28.33h0l-.31.37a7.23,7.23,0,0,0-.66,1l-.18.3C32.54,113.17,32.51,113.25,32.47,113.32Zm.18,3.59c0-.33,0-.66,0-1s0-.43,0-.66a4.84,4.84,0,0,1,.14-.61c.07-.22.15-.43.24-.66l.06-.11,0-.06v0h0a7.7,7.7,0,0,1,.49-.9,8,8,0,0,1,.56-.78,11,11,0,0,1,.88-.94c.28-.25.55-.47.81-.67s.45-.3.66-.42l.08,0,.14-.07h0l.15-.08c.39-.2.72-.36,1-.5l.18-.08h0c.38-.14.78-.26,1.16-.36l.09,0,.26-.06h0l.88-.21.83-.14.1,0h.24c.31,0,.63,0,.94,0h0l.49,0,.5,0h0a7.77,7.77,0,0,1,.93.21l.08,0h0a.59.59,0,0,0-.05.23.42.42,0,0,0,0,.15.45.45,0,0,0,.2.23.47.47,0,0,0,.15.06h.16l.09,0h.3l.19,0,.1,0,.43.18.09,0a.34.34,0,0,0,.06.2s0,0,.06,0v.17l0,.22h0c0,.09,0,.2-.08.29s0,0,0,0l0,0h.06l.11,0,.14-.08a1,1,0,0,0,.18-.17.78.78,0,0,0,.14-.29,1.15,1.15,0,0,1,.14.17l.09.13.06.13c0,.1.06.19.08.28a2.94,2.94,0,0,1,.09.48c0,.2,0,.4,0,.59s0,.6-.08.9-.16.75-.27,1.11a7.87,7.87,0,0,1-.83,1.81c-.19.28-.38.54-.58.8s-.53.59-.83.89a19,19,0,0,1-1.62,1.35c-.2.15-.4.28-.59.4l-.54.33-.3.14-.45.21-.18.06h0l-.72.24-.12,0-.67.12-.8.15c-.5,0-1,.07-1.53.08-.17,0-.34,0-.51,0h0c-.35,0-.75,0-1.17-.08a5.45,5.45,0,0,1-.61-.14l-.4-.15-.38-.22-.12-.09-.08-.06-.38-.35a1.15,1.15,0,0,1-.14-.17,2.84,2.84,0,0,1-.22-.34c-.1-.19-.18-.37-.26-.55l-.18-.58C32.75,117.49,32.7,117.21,32.65,116.91ZM22,136.3c-.14-.35-.26-.72-.37-1.07l0-.09c0-.16-.11-.32-.16-.49s-.16-.46-.23-.69c-.13-.42-.24-.8-.33-1.15l-.07-.25a8.23,8.23,0,0,0-.26-.94c-.09-.22-.17-.43-.27-.64a3,3,0,0,0-.21-.4,1.74,1.74,0,0,0-.1-.19,2.73,2.73,0,0,0-.37-.52,6.29,6.29,0,0,0-.43-.47l0,0c-.49-.53-1-1.08-1.39-1.65-.14-.2-.27-.4-.4-.62a6.39,6.39,0,0,1-.31-.66c-.05-.14-.09-.27-.13-.4a1.87,1.87,0,0,1,0-.25,2.64,2.64,0,0,1,0-.28v0h0s0-.11,0-.16l0-.12.05-.14A.75.75,0,0,0,17,125a1,1,0,0,1,.08-.11l.13-.14.19-.15.23-.14.3-.14.53-.16c.43-.1.86-.22,1.28-.33l1.06-.28.23-.06.92-.23.62-.19.25-.07.25-.07h0a6.45,6.45,0,0,1,.66-.12h0l.93-.07h.3l.41,0h.47c.26,0,.52,0,.77,0h0l.47,0h.6l.66,0c.22,0,.44,0,.65-.06l.62-.08a4.62,4.62,0,0,0,1.75-.64l.83-.52a1.88,1.88,0,0,0,.32-.25,2.64,2.64,0,0,0,.23-.29,1.59,1.59,0,0,0,.13-.22.75.75,0,0,0,.07-.12l.12-.16,0,0h0l.09.08c.15.14.3.26.41.35a4.29,4.29,0,0,0,.95.54,5,5,0,0,0,1,.3l.24,0,.1,0h0l-.17.19-.12.12-.24.26-.2.21-.06.07-.16.17-.24.2-.12.09-.26.2-.12.09-.12.08a3,3,0,0,1-.4.25,8.36,8.36,0,0,1-.86.39l-.05,0-.17.07-.17.06-.32.14h0a8.77,8.77,0,0,0-1.21.67l-.38.23-.21.11-.1.06-.16.08-.1,0-.08,0-.05,0-.15.07-.37.13-.25.08-.15,0-.26.08-.16,0-.33.08h-.07l-.16,0-.27,0a1.94,1.94,0,0,0,.4,0h.34a5.05,5.05,0,0,0,.72-.11,2.74,2.74,0,0,0,.39-.09l.09,0h.07l.15-.05a5.47,5.47,0,0,0,.64-.31c.21-.12.42-.24.62-.37s.39-.23.57-.33a5,5,0,0,1,.61-.31l.06,0,.27-.12.17-.07.16-.07.09,0a6.4,6.4,0,0,0,.8-.37,3.21,3.21,0,0,0,.38-.23l.16-.11.06,0,.19-.15.16-.12.3-.25a1.89,1.89,0,0,0,.2-.2l0-.06.06-.07.1-.11.1-.12c.1-.1.19-.21.28-.31l.08-.08.12-.14.08-.09.09-.1h0l.59.06.27,0,.38,0h.07l0,0c-.09.12-.17.24-.24.35l-.09.13-.11.17-.25.37-.07.09-.13.18-.11.14-.1.12c-.16.19-.31.36-.46.51l-.43.45-.09.09-.44.46-.07.08c-.14.15-.29.31-.44.49l-.42.48-.26.3-.15.17-.13.15-.06.06-.11.12,0,.05,0,0-.05,0,0,.05-.16.14-.14.13-.25.19-.09.07,0,0-.69.49c-.31.21-.61.43-.91.65l-.07,0-.07,0-.13.1-.1.06-.19.14-.11.07-.23.15-.63.37,0,0h0l0,0-.11.07-.05,0-.22.11-.29.14-.24.08a2.35,2.35,0,0,0,.35,0l.39-.1c.23-.07.45-.15.66-.23l0,0,.29-.12.22-.12.12,0c.19-.11.4-.23.65-.4l.22-.16.09-.06,0,0,.14-.1.4-.29.15-.1c.13-.09.26-.18.38-.28l0,0,0,0,0,0,0,0,0,0h0l0,0,.27-.21,0,0,.25-.22,0,0,.09-.08.09-.1.06,0,.2-.22,0-.06.52-.6.42-.48c.31-.35.64-.7,1-1,.18-.18.36-.37.53-.56l.17-.19.05-.06.09-.11,0,0,0,0,.07-.09,0-.06v0l.14-.18.11-.17.11-.16a2.39,2.39,0,0,1,.13-.21l0-.06.06-.09.12-.19c.1-.16.2-.31.28-.46h0l.09-.14h0l.77,0h0l-.24.44-.09.17c-.13.24-.24.43-.35.61l-.09.15-.08.12-.1.12-.17.26-.06.09-.16.23,0,0c-.16.22-.32.45-.49.67a7.77,7.77,0,0,0-.54.74l-.27.43-.14.25-.06.11c-.1.2-.2.36-.29.51l0,0,0,.06a6.13,6.13,0,0,0,.56-.49l.25-.27.19-.2.12-.12c.29-.3.59-.61.86-.94a4.66,4.66,0,0,0,.4-.58l.27-.44.13-.22.08-.13.06-.14,0,0,.09-.2.07-.16c.06-.11.11-.22.16-.33l.13-.25.12-.24.1-.2.06-.11h0l.56,0,.58-.06h.11a1.25,1.25,0,0,0-.17.16L40,122l-.25.23-.13.13-.09.09a2.73,2.73,0,0,0-.23.25,3.44,3.44,0,0,0-.45.83,6.48,6.48,0,0,0-.26.82l0,.06c-.05.2-.1.41-.14.61l-.05.23c-.08.31-.15.63-.23,1s-.23.91-.4,1.47a12.38,12.38,0,0,1-.52,1.38l-.19.43-.16.33c0,.11-.1.2-.15.29l0,.09-.12.22-.1.16-.1.17-.25.34a1.54,1.54,0,0,1-.17.19l-.14.12-.14.09a1.21,1.21,0,0,1-.2.09,1.4,1.4,0,0,1-.29.09,4.79,4.79,0,0,1-.48.08l-.47,0a3.41,3.41,0,0,0-.58.07,2.05,2.05,0,0,0-.49.18,2.36,2.36,0,0,0-.87.9,4.18,4.18,0,0,0-.38,1l-.14.47c0,.12-.06.23-.1.35s-.11.33-.17.5-.11.28-.16.41l0,.08-.05.1,0,0,0,.06a.61.61,0,0,1-.07.14l0,.06-.19.31,0,.06v0l0,0h0c-.14.21-.28.43-.43.64l-.25.36-.18.23-.05.06a7.54,7.54,0,0,1-.54.58l0,0-.27.23-.05,0h0l-.16.12,0,0-.37.24-.31.15-.23.07-.08,0h0l-.21,0a4.87,4.87,0,0,1-.54,0,2.5,2.5,0,0,1-.4,0h-.12c-.28,0-.58-.12-.92-.21h0l-.23-.07-.23-.1-.32-.17-.27-.19-.09-.07-.2-.14a3.24,3.24,0,0,0-.49-.22l-.07,0h0l0,0-.27-.15-.09-.06-.17-.1-.09-.06L23,137.6l-.26-.2-.09-.07-.1-.08h0a7.4,7.4,0,0,1-.41-.62Zm1.65,1.89.16,0a.36.36,0,0,0,0,.11Zm2.91,32.75h0l-.29-.2-.35-.22-.15-.1-.54-.34L25,170c-.18-.12-.37-.23-.56-.34l-.11-.06-.11-.07h0l-.11,0-.05,0-.35-.15-.84-.29-.74-.21-.08,0-.74-.2h0l-.91-.2-.27-.06-1.63-.38-1.08-.26-.58-.14-.63-.16-.31-.1-.28-.09h0l-.17-.07-.1,0-.21-.08h0l-.06,0-.57-.28-.3-.17L14,166.4a9.1,9.1,0,0,1-.79-.53,8.28,8.28,0,0,1-.84-.71,11,11,0,0,1-.91-1,8.08,8.08,0,0,1-.67-1,7.77,7.77,0,0,1-.5-1A7.49,7.49,0,0,1,9.92,161a5.73,5.73,0,0,1-.14-.56c0-.08,0-.17,0-.25l0-.22-.06-.32c0-.15,0-.3-.05-.45v-.11c0-.24-.05-.47-.07-.71v-.12c0-.28-.05-.56-.08-.84l-.05-.5,0-.16v-.16a1.94,1.94,0,0,1,0-.24v-.1c0-.17,0-.36,0-.55h0v-.06c0-.09,0-.18,0-.28s0-.06,0-.1h0l.07,0h0l.06,0,1.48.68.64.3.82.37c.42.19.86.41,1.43.72l.06,0c.21.11.43.23.65.33s.53.24.78.33a6,6,0,0,0,.8.24c.25.07.51.12.76.17l.33.06c.41.07.82.15,1.22.24L19,159c.21.09.41.19.61.3h0l.19.11c.31.17.62.35.92.54h0l.18.11.36.23.07,0,.73.5c.26.2.49.4.71.6a7.24,7.24,0,0,1,.63.71l.24.33.17.24,0,.05v0l.07.11,0,.07.06.09a1,1,0,0,0,.08.14c0,.06.07.12.1.19l0,.08,0,.08.09.16.07.16.17.39.12.3.1.25c0,.11.07.22.11.33l0,.13c0,.14.09.28.13.42l.06.21.09.34c0,.14.07.28.1.43l0,.18c0,.12.06.25.08.37l0,.14c0,.07,0,.15.05.22h0l0,0-.13-.14v0l-.21-.21-.11-.1-.14-.14-.06-.06-.06-.05-.11-.1-.1-.09c-.2-.17-.41-.35-.63-.51l-.39-.28-.45-.29-.53-.33-.2-.12-.32-.2-.53-.33c-.53-.35-1.06-.74-1.56-1.1s-.78-.55-1.16-.82l-.43-.3c-.58-.4-1.09-.74-1.57-1l-.4-.25h0l-.1-.06-.2-.12-.11,0a.38.38,0,0,0-.1,0,1.76,1.76,0,0,0-.68-.14h0a1.54,1.54,0,0,0,.21.45,1.29,1.29,0,0,0,.36.34l.29.17.13.07.48.29c.57.34,1.1.71,1.62,1.06l.45.31,1.11.77.08,0c.47.34,1,.7,1.47,1l.43.28.33.21.79.54c.17.13.34.26.5.4l0,0,.07.06.12.1.1.08.09.09.06.05.57.57a5.59,5.59,0,0,1,.45.52l0,.06.06.08c.13.17.27.35.39.54l.07.11.15.23.17.3c.2.36.39.73.58,1.09l.22.42h0ZM33,173c-.26,1-.5,2-.74,3-.12.5-.25,1-.38,1.5,0,.16-.08.33-.13.49-.22.63-.44,1.25-.65,1.88l-.45,1.33c-.18.5-.37,1-.56,1.48-.29.73-.6,1.46-.9,2.18.05-.59.11-1.18.13-1.77,0-.39,0-.78,0-1.17,0-.18,0-.36,0-.55.18-.53.35-1.07.55-1.6l.75-2.06c.22-.64.41-1.3.59-2l.3-1.17c.09-.33.19-.66.28-1,.05-.18.11-.35.16-.52l.12-.4c.13-.37.25-.75.37-1.12l.57-1.8c.11-.14.21-.28.32-.41q.36-.44.69-.87l.27-.38C33.82,169.71,33.4,171.37,33,173Zm8-25.45h0l.2-.15.93-.69.35-.25c.22-.17.47-.35.72-.52l.33-.22.11-.07.3-.19.2-.11.31-.17.33-.18.18-.09.31-.16.68-.36a7.73,7.73,0,0,0,1-.59l.92-.68,1-.74a6.79,6.79,0,0,0,.78-.68h0v.13a4.71,4.71,0,0,1,0,.53v.1l0,.13c0,.12,0,.23,0,.35s0,.1,0,.16,0,.23-.07.34c-.07.36-.16.72-.24,1.07s-.16.6-.25.9c-.21.67-.44,1.37-.72,2.12q-.24.64-.48,1.26c-.12.29-.23.57-.33.86-.28.73-.54,1.47-.77,2.2-.07.26-.15.51-.23.77l-.11.37c-.1.33-.22.65-.33,1l0,0v0l-.15.37,0,.06-.12.26,0,.08-.15.32-.21.39-.26.43-.16.25,0,.08c-.13.2-.28.4-.42.6l-.07.1-.25.31-.45.56c-.14.18-.28.35-.43.51l-.16.2-.63.72,0,.05-.24.26-.11.12-.25.25-.13.13-.26.24-.24.22-.11.09-.52.43-.21.16-.42.35-1,.84c-.7.53-1.32,1-1.93,1.55l-.38.35-.45.45-.43.45-.12.13,0,0-.06.07-.11.13-.11.12-.12.15-.12.14-.05.08,0,0-.29.37-.27.36-.31.43h0L34,167l.67-1.67.35-.87.17-.44c.22-.56.47-1.15.77-1.85l.22-.51c.18-.39.35-.8.52-1.2l.42-1c.12-.29.27-.59.45-.93s.33-.68.45-.94.3-.73.41-1.05l0,0,0,0-.2.23-.49.59a4.4,4.4,0,0,0-.29.39l0,0c-.09.14-.19.29-.27.44a9.27,9.27,0,0,0-.46.95l-.3.74-.1.26h0l0,.09c-.27.67-.57,1.34-.86,2l0,0c-.29.64-.56,1.27-.85,2s-.58,1.33-.89,2l-.15.34c-.25.53-.5,1.07-.74,1.61-.09.2-.17.4-.25.6h0c0-.12,0-.25,0-.38s-.05-.33-.08-.5c-.06-.35-.13-.71-.21-1.11,0-.2-.08-.4-.13-.62-.1-.47-.18-.88-.25-1.25s-.09-.53-.13-.79c0-.09,0-.19,0-.29l0-.22v-.06c0-.23,0-.46-.07-.7v-.15c0-.13,0-.26,0-.38v-.53c0-.17,0-.34,0-.51s0-.21,0-.31V161c0-.13,0-.25,0-.38l.05-.48V160l0-.26v-.11a1.85,1.85,0,0,0,0-.23c0-.11.05-.21.08-.32s0-.17.05-.26l0-.06c.05-.16.09-.33.14-.49L32,158c.09-.26.19-.53.32-.86l0-.11.11-.27.07-.14a2.55,2.55,0,0,1,.13-.29.61.61,0,0,1,.07-.14c0-.1.09-.21.15-.31l.11-.2.12-.21.17-.27,0-.07a1,1,0,0,0,.08-.14l.15-.2a2.75,2.75,0,0,1,.19-.28h0l0,0h0l0-.05.06-.08.14-.18.24-.32.08-.1.49-.6.62-.73c.14-.16.29-.32.44-.47l.09-.1.23-.21.19-.18.25-.22.06,0,.79-.67.8-.69.9-.76.13-.11.72-.61Zm0-25.64-.3.62-.1.22a8.91,8.91,0,0,0-.44,1.13v0s0,.09,0,.13h0l-.09.32c0,.09,0,.19-.08.28l0,.14h0l-.09.33q-.12.51-.21,1l0,.17c-.12.59-.21,1.19-.3,1.79,0,.13,0,.27-.07.4l0,.3-.63,4.12c0,.24-.09.45-.14.65s-.17.48-.29.75a8,8,0,0,1-.38.72c-.12.18-.24.35-.37.51l-.13.15-.23.26c-.13.14-.25.28-.38.44s-.5.59-.77.86l-.14.12,0,0-.12.06-.2.06-.61.11a5.41,5.41,0,0,1-.59,0l-.41,0a7.45,7.45,0,0,0-1.25,0,2.08,2.08,0,0,0-.84.27,1.2,1.2,0,0,0-.26.18l-.22.19a7.19,7.19,0,0,1-.59.51c-.24.17-.49.33-.76.49l-.64.3c-.18.06-.35.12-.51.16l-.28,0h-.48a3.16,3.16,0,0,0,.5-.1,3.09,3.09,0,0,0,.61-.27,5.63,5.63,0,0,0,.72-.48,5.43,5.43,0,0,0,.65-.62c.22-.25.4-.48.57-.71l.29-.43.24-.37a2.56,2.56,0,0,0,.16-.25l.09-.15,0-.06a.83.83,0,0,0,.07-.13,2.56,2.56,0,0,0,.11-.24c.06-.13.11-.26.16-.39v0l.15-.41.22-.76,0-.13,0-.1h0c.07-.19.13-.4.22-.6l.15-.29c0-.08.11-.15.17-.23a1.07,1.07,0,0,1,.14-.16l.15-.12.14-.1.13,0,.11,0,.2,0h.63a6.33,6.33,0,0,0,.78-.06,2.26,2.26,0,0,0,1.05-.42,2.9,2.9,0,0,0,.74-.86l.06-.1c.06-.1.12-.19.17-.29l.17-.31.06-.13c.05-.09.09-.19.14-.29l.06-.14.14-.32,0-.12a11.48,11.48,0,0,0,.57-1.68c.16-.61.3-1.23.43-1.85l.12-.62a.77.77,0,0,1,0-.15c0-.21.09-.43.14-.66s.08-.44.13-.66l0,0a5.17,5.17,0,0,1,.18-.51c0-.09.09-.18.14-.27l.14-.19a5.36,5.36,0,0,1,.39-.42h0l.12-.13.13-.13.13-.13h.11a.17.17,0,0,0,.1-.06.39.39,0,0,0,.08-.1.19.19,0,0,0,0-.1s0,0,0,0a.09.09,0,0,0,0-.06h0l.09,0h0v.3Zm24.53,2.54a1.22,1.22,0,0,1-.06.26c0,.16-.1.32-.16.48s-.08.23-.13.34l-.06.16c-.11.28-.22.59-.35,1s-.23.7-.32,1a3.06,3.06,0,0,0-.11.64,1.3,1.3,0,0,0,.09.56,2.33,2.33,0,0,0,.11.28l.07.19a2.47,2.47,0,0,1,.1.29l.06.31a2.29,2.29,0,0,0,0,.25v.3c0,.17,0,.34,0,.5s0,.3,0,.44a2.88,2.88,0,0,1-.09.4,9.58,9.58,0,0,1-.39,1.06l-.17.32-.17.24-.12.13a1.73,1.73,0,0,1-.21.17,1.58,1.58,0,0,1-.24.15,7.41,7.41,0,0,1-.75.35c-.19.07-.37.12-.54.17l-.7.13-.37.06a5.42,5.42,0,0,0-1,.28l-.43.16-.54.2-.28.1c-.23.07-.47.16-.69.25h0a3.62,3.62,0,0,0-.45.2,3.7,3.7,0,0,0-.51.29,5.24,5.24,0,0,0-.78.62c-.32.31-.64.65-.94,1l-.5.54-.2.2,0,0h0a6.57,6.57,0,0,1-.57.48,7.16,7.16,0,0,1-.64.4l-.31.17-.32.17-.18.1c-.17.09-.34.18-.52.26l-.17.05-.11,0h-.19a2.86,2.86,0,0,1-.34,0,1.4,1.4,0,0,1-.28-.06l-.33-.12a3.27,3.27,0,0,1-.33-.18l-.09-.06-.23-.14-.42-.3-.51-.38-.21-.16a6.27,6.27,0,0,0-.57-.38l0,0h0l.17.06.41.16.07,0h0l.48.19a4.66,4.66,0,0,0,.49.16l.17,0,.38.05a2,2,0,0,0,.87-.07,3.41,3.41,0,0,0,.51-.22,3,3,0,0,0,.46-.3,5.82,5.82,0,0,0,.76-.73,7,7,0,0,0,.68-.94A4.53,4.53,0,0,0,54,136a3.59,3.59,0,0,0,.12-.35c0-.14.1-.28.16-.42a.47.47,0,0,1,.05-.1l.06-.09,0,0,0,0,0,0h0l0,0,.1,0h0l.33-.07.13,0,.52-.12a3.2,3.2,0,0,0,.52-.18l.46-.23a5.25,5.25,0,0,0,.93-.67c.22-.19.51-.44.79-.72s.52-.53.75-.78a5.57,5.57,0,0,0,.7-.86,5.29,5.29,0,0,0,.29-.52l.23-.53a10.16,10.16,0,0,0,.34-1,12.25,12.25,0,0,0,.3-1.28c.05-.29.09-.59.14-.88,0-.13,0-.26.06-.41a10.3,10.3,0,0,1,.22-1l.07-.19.08-.14.09-.13.16-.17.21-.18.05,0h0c.21-.15.42-.28.66-.42s.64-.29,1-.42l.17-.08.4-.17.39-.18.34-.17.1-.06.11,0h0a1.22,1.22,0,0,0,.19-.12h0s0,.11,0,.16,0,.21,0,.32,0,.24,0,.36A5,5,0,0,1,65.41,124.46ZM47.9,117.24l.41.34c.28.21.57.41.86.61s.65.43.95.6.65.35,1,.49a12.28,12.28,0,0,0,2,.71l2.06.54.79.19.38.07.38.06h.05l.51.07.47.06,1,.07h.07l1.09.1.3,0c.23,0,.47.06.71.07a8,8,0,0,0,1,0h.51l.63,0,.57.07h0l.33.07.19.07.12.07.18.12.24.24.21.26.2.32,0,.09h0l-.07.07h0l-.06,0h0a9.64,9.64,0,0,1-.9.4l-.72.27-.32.11a6.49,6.49,0,0,0-1,.44,3.42,3.42,0,0,0-1,.85,2.29,2.29,0,0,0-.37.81c0,.17-.1.34-.14.51l-.15.71c0,.2-.08.41-.13.62s-.11.45-.16.67l-.18.65A12,12,0,0,1,59.5,130c-.1.22-.19.39-.28.56l-.24.35c-.33.39-.71.75-1.09,1.13H57.8c-.31-.07-.62-.16-.93-.24l-.56-.16-1.46-.4h0l.78.33.69.27.59.21.38.12.28.08h0c-.31.27-.62.55-.95.8-.14.1-.27.18-.39.25s-.37.19-.56.27l-.47.15-.46.1a4,4,0,0,0-.62.19,1.46,1.46,0,0,0-.8.88,5.25,5.25,0,0,0-.17.52l0,.05c-.06.19-.13.39-.22.6a6,6,0,0,1-.3.54,5.19,5.19,0,0,1-.42.59c-.15.18-.32.35-.5.53a2.61,2.61,0,0,1-.33.27,2,2,0,0,1-.27.17l-.24.12-.15,0-.14,0H50.2l-.43-.05h0l-.34-.09h0l-.58-.19-.08,0-.44-.13-.26-.08h0l-.16,0-.49-.17c-.17-.06-.33-.13-.48-.2l-.16-.08-.44-.21h0l-.19-.09h0a3.89,3.89,0,0,1-.36-.34q-.17-.18-.3-.36a6.34,6.34,0,0,1-.35-.54.61.61,0,0,0-.07-.14l-.15-.3-.07-.16c0-.11-.1-.21-.14-.32l-.07-.15c-.12-.27-.24-.56-.38-.84s-.34-.67-.51-1a8.77,8.77,0,0,1-.46-1l-.17-.4-.12-.36-.06-.18c0-.12-.08-.23-.11-.34l0-.11c-.1-.35-.2-.66-.28-1l-.15-.6,0-.17v-.08l0-.08-.06-.29a1.37,1.37,0,0,1,0-.19l0-.11,0-.18,0-.14,0-.34c0-.21,0-.42,0-.64l0-.57,0-.4,0-.84v-.17c0-.31,0-.63,0-.95s0-.55,0-.82l0-.36,0-.45c0-.26,0-.51,0-.77l0-.13.53-.25.19-.1.38-.21.05,0h0a.29.29,0,0,1,0,.09l.12.38,0,.13c0,.15.09.3.14.46l.1.32.1.33.09.3.06.21a1.17,1.17,0,0,0,.16.34v0l.23.42a2.44,2.44,0,0,0,.14.28c.1.19.19.38.29.56.24.49.49,1,.73,1.45l-.07-.22c-.08-.3-.17-.59-.27-.88l-.05-.16c0-.12-.07-.24-.11-.36l0-.06v0c0-.14-.09-.28-.15-.44l-.07-.16-.1-.27,0-.1,0-.15-.09-.19a.61.61,0,0,1-.07-.14l-.06-.21,0-.1,0,0s0-.1,0-.15l-.07-.23-.08-.26c0-.19-.1-.37-.16-.56l-.05-.18c-.06-.18-.11-.36-.16-.55a.59.59,0,0,1,0-.13h0q.39-.25.78-.54l.08-.06.58-.43h0l0,.08c.06.07.1.16.16.24l.09.14c.06.12.14.25.21.37l.35.55.4.56c-.11-.39-.25-.79-.44-1.28l-.15-.35a2.81,2.81,0,0,0-.18-.35l0-.08,0-.09,0-.07h0c.26-.21.49-.41.7-.6l0,0h0l0,0,.14.19.14.18.16.18.06.08,0,0,.16.19.22.24.09.1.18.19,0,0,.53.54.57.53.53.49.43.37.09.08.2.16.08.06.07.06.17.12.07.05c.18.12.36.25.55.36l.11.06.28.17.19.11.09,0c.44.23.89.44,1.32.63l.58.24.1,0,.23.08.2.05.17,0,.22.06h.12l.08,0,.18,0c.25,0,.5.06.73.08l-.5-.11-.28-.08-.1,0-.21-.07h0l-.11,0-.39-.17-.33-.16-.25-.12-.33-.18-.33-.18-.38-.21-.21-.12-.35-.21-.17-.1-.26-.17-.25-.17-.15-.11-.07,0-.13-.09-.07,0,0,0h0l-.45-.36c-.33-.27-.64-.55-1-.89s-.76-.7-1.09-1-.43-.42-.62-.62l-.15-.16-.33-.37-.1-.12-.16-.19h0l.09-.09.09-.1a8.5,8.5,0,0,0,.84-1.06h0l.26.22Zm10,.41-.18,0h0l-.14,0c-.35-.06-.65-.12-.92-.19l-1.07-.28c-.53-.14-1.06-.3-1.59-.45l-.61-.18-1.07-.28c-.3-.08-.62-.15-1-.21h0l-1.21-.19h-.06c-.24,0-.48-.08-.72-.1a2.17,2.17,0,0,0-.36,0h-.81a7.48,7.48,0,0,0,.34-1l0,0v0h0l.09,0,.14,0,.15,0,.42-.07h.1l.16,0,.19,0,.36,0,.36,0,.73-.11.36-.08.28-.06.44-.09.26,0h.12l.69-.07.41,0,.26,0,.1,0,.13,0h.05l.15,0,.39-.11.32-.1.1,0,.21-.08.22-.08.46-.18.22-.08.75-.31a7.08,7.08,0,0,0,.89-.49,5.9,5.9,0,0,0,.81-.63,4.36,4.36,0,0,0,.43-.43l0,0,0,0,.16-.19c.18-.22.36-.43.53-.66l-.05.06-.06.06-.5.45-.16.13-.07.06-.35.27a7.09,7.09,0,0,1-.89.56,6.77,6.77,0,0,1-.66.33c-.21.1-.43.19-.65.27l-.05,0h0l-1.06.4-.49.17L55,113l-.17.06-.19,0-.1,0-.12,0-.12,0-.19,0h-.07l-.18,0h-.1l-.2,0h-.22l-.53,0-.39,0-.38.06-.47.11-.18,0-.37.08-.38.07-.7.1-.36,0-.23,0L49,114l-.31.07-.09,0h0c0-.11,0-.22,0-.34a6.46,6.46,0,0,0,.07-.92v-.26l.31-.08.79-.19h.06l.55-.13.06,0,.09,0,.17,0A1,1,0,0,0,51,112l.12-.07.16-.11.34-.19.18-.1.71-.42.2-.13.32-.2.24-.17.09-.07.09-.07.24-.18.49-.4.06-.05h0l.4-.37a4.51,4.51,0,0,0,.92-1.2c.13-.23.24-.47.35-.69,0,.09-.11.18-.17.27a5.93,5.93,0,0,1-.39.56,4,4,0,0,1-.35.37,5.81,5.81,0,0,1-.54.45l-.22.15-.21.15c-.09.07-.19.12-.28.18l-.14.09-.81.49-.32.16-.68.35-.3.14-.4.21c-.14.07-.28.13-.41.21l-.09,0h0l-.21,0-.23.05-.29.06-.08,0-.5.11-.18,0-.42.1a5.55,5.55,0,0,0-.15-.79l-.09-.29,0-.09-.09-.22h0a5.44,5.44,0,0,0,.5-.24l.33-.2a2.54,2.54,0,0,0,.34-.23l.4-.36.69-.68c.11-.1.21-.21.32-.32a3.7,3.7,0,0,0,.37-.42,2.11,2.11,0,0,0,.19-.23l0,0s.07-.09.09-.13l.28-.44L52,107l.1-.15.22-.35,1-1.61,0-.06,0,0-.19.26-1,1.37-.24.33-.16.21-.11.14c-.14.19-.28.39-.44.58a7.81,7.81,0,0,1-.61.66l-.61.59-.1.1-.07.06-.59.53-.39.3-.07,0a2.92,2.92,0,0,1-.27.17h0l-.22.12h0a2.81,2.81,0,0,0-.24-.4,3.45,3.45,0,0,0-.51-.5h0a2.11,2.11,0,0,0,.19-.23,10.63,10.63,0,0,0,.61-.9c.18-.3.37-.62.57-1L49,107c.12-.22.24-.45.37-.67l.47-.8c.22-.37.45-.75.67-1.14.07-.12.14-.26.22-.43l.08-.17.15-.35.07-.15c.05-.12.11-.24.15-.36l.07-.18c.05-.13.1-.25.14-.38s.07-.19.1-.29.1-.28.14-.42l.24-.75c.1-.33.19-.59.28-.84s.13-.33.2-.49l.08-.19c.07-.16.15-.31.22-.45s.15-.27.22-.4a6.37,6.37,0,0,1,.45-.63,4.76,4.76,0,0,1,.43-.46c.21-.19.43-.36.65-.53l.12-.08.67-.52c.38-.3.73-.64,1.07-1l0,0,.23-.22.31-.29.37-.3c.29-.2.57-.4.87-.58l.44-.21.46-.15.39-.07h.37l.32,0,.38,0h.1c.28,0,.52.11.75.17L62,94h0l.37.19.07,0h0a1.6,1.6,0,0,1,.31.22,3.19,3.19,0,0,1,.32.3h0l0,0,0,0c.13.15.26.3.38.46s.25.38.36.57l0,0,.23.46c.08.16.16.34.23.51s.27.63.39.94l0,.11v0h0v0c.13.32.26.65.41,1a5.36,5.36,0,0,0,.34.62v0c-.15.4-.36.79-.55,1.18s-.3.65-.46,1l0,0-.17.21a1.63,1.63,0,0,0-.11.17l-.21.29-.21.33c-.08.11-.15.24-.23.35s-.29.33-.44.49l-.39.44-.51.56,0,0-.34.33-.27.27c-.21.18-.41.37-.62.54h0c-.5.41-1,.8-1.54,1.18h0a33.11,33.11,0,0,0,3.14-2.11l.06,0h0l0,0,0,0,.07-.05,0,0,.57-.48a7,7,0,0,0,.89-.83c.14-.18.3-.35.45-.53l.3-.35.12-.15a1,1,0,0,0,.16-.2,2.12,2.12,0,0,0,.11-.21l.79-1.46,0-.1a5.66,5.66,0,0,0,.78.69,5.05,5.05,0,0,0,1,.53l.07,0,.18.07.15,0,.15.06.22.07.24.08.51.2.08,0c.08,0,.16.07.24.12l.12.06.39.23c.19.12.37.25.54.38l.17.15a.12.12,0,0,0,0,0h0l.05,0a3.57,3.57,0,0,1,.31.37c0,.08,0,.16.05.23s0,.16,0,.25c0,.26,0,.52-.07.78s-.07.36-.12.53h0v0a1.55,1.55,0,0,1-.08.23c-.06.11-.11.22-.18.34l-.16.21c0,.07-.11.13-.16.19l-.18.15-.22.13-.21.1-.32.1c-.22,0-.43.09-.65.12l-.39,0-.3,0h-.16l-.86.08a2.82,2.82,0,0,0-.92.25,2.11,2.11,0,0,0-.42.29,2.73,2.73,0,0,0-.36.45,2.92,2.92,0,0,0-.23.47,3.14,3.14,0,0,0-.13.45l0,.09c0,.11-.06.21-.08.32-.07.33-.13.67-.19,1v.06c0,.18-.07.35-.1.52l-.1.37,0,.08,0,.07a5,5,0,0,1-.22.61v0l0,.1-.12.27c-.07.12-.13.25-.19.38s-.24.42-.36.62l0,0-.09.13-.25.36-.37.47c-.17.2-.37.43-.58.65l-.49.49-.05,0,0,0h0l0,0a11.07,11.07,0,0,1-1.09,1l-.34.21a9.81,9.81,0,0,1-1.14.53l-.16.06-.09,0-.13,0a.61.61,0,0,0-.2.15h-.18C58.32,117.71,58.1,117.68,57.88,117.65ZM72,106.42a8.53,8.53,0,0,1-.23,1c-.08.26-.16.48-.23.68s-.19.47-.29.69a7.42,7.42,0,0,1-.36.7l-.18.25-.14.15-.17.14a4.46,4.46,0,0,1-.52.31l-.07,0-.1,0-.44.24a6.89,6.89,0,0,0-.59.37l-.31.25a2.14,2.14,0,0,0-.59.88c0,.15-.09.29-.13.44l0,.17a5,5,0,0,1-.2.53l-.06.12a1,1,0,0,1-.08.11h0l-.14.15v0h0a14.27,14.27,0,0,1-1.18,1l0,0h0l-.67.45c-.23.15-.49.3-.72.43s-.57.3-.85.42-.63.29-.95.42l-.54.24-.57.24h0c.18-.16.37-.32.57-.51a12.12,12.12,0,0,0,1.19-1.22c.21-.24.39-.47.57-.71s.3-.43.48-.73.28-.5.4-.75a7.66,7.66,0,0,0,.35-.79c.08-.21.15-.44.22-.69s.12-.51.17-.81l0-.25c0-.19.06-.38.1-.56s.09-.48.16-.74c0,0,0-.1,0-.15h0c0-.13.09-.26.14-.38a1,1,0,0,1,.1-.18,1.33,1.33,0,0,1,.14-.19.69.69,0,0,1,.11-.13l.12-.1.11-.07.17-.07.24-.08c.18,0,.38-.06.56-.09h.11l.9-.07.29,0,.15,0a6.27,6.27,0,0,0,.92-.19,2.13,2.13,0,0,0,.49-.21,2.36,2.36,0,0,0,.44-.32,2.67,2.67,0,0,0,.65-.93,2.18,2.18,0,0,0,.17-.51c0-.1,0-.2,0-.3V105l0-.39v-.11h0c.05.14.09.28.13.43a4.54,4.54,0,0,1,.09.51c0,.15,0,.31,0,.45S72.06,106.24,72,106.42Z"/><path class="cls-1" d="M51.55,96.56v0h0Z"/><polygon class="cls-1" points="51.9 94.8 51.9 94.81 51.9 94.81 51.9 94.8"/><path class="cls-1" d="M22.52,138.24h0l0,0Z"/><path class="cls-1" d="M29.84,118.9h0l0,0Z"/><path class="cls-1" d="M25.28,127.4l.19,0,.13,0a.31.31,0,0,0,.13-.06.19.19,0,0,0,.06-.19.22.22,0,0,0-.05-.08.14.14,0,0,0-.08,0h-.12l-.06,0-.16,0c-.09,0-.18.06-.27.09a3.06,3.06,0,0,0-.5.27l.33,0Z"/><path class="cls-1" d="M52.64,129.66c-.34-.47-.66-.89-1-1.27s-.59-.71-.88-1l-.09-.1-.17-.19c-.07-.08-.15-.16-.22-.25l-.21-.26-.13-.15c-.24-.29-.46-.58-.67-.86s-.43-.6-.63-.9l-.31-.42-.1-.12-.16-.18a1.9,1.9,0,0,0-.55-.42h0a.16.16,0,0,0-.1,0,.19.19,0,0,0-.08.07.17.17,0,0,0,0,.14.16.16,0,0,0,.08.1h0l.1.07.11.1.17.21c.13.18.25.38.36.57l.09.15.07.13c.11.19.22.37.34.55a12.83,12.83,0,0,0,.92,1.3c.1.12.2.25.31.37l.45.48c.17.18.36.36.54.53l.08.08.57.52.53.47c.2.18.4.36.62.54l.19.16.13.1-.38-.49Z"/><path class="cls-1" d="M25.2,113.8a1.31,1.31,0,0,0-.44,0h0s.06.09.08.14a.91.91,0,0,0,.08.13.8.8,0,0,0,.26.19l.07,0a.26.26,0,0,0,.25-.13.27.27,0,0,0,0-.2.25.25,0,0,0-.14-.13Z"/><path class="cls-1" d="M41.31,133.46v0Z"/><path class="cls-1" d="M41.34,132.37v0h0S41.34,132.38,41.34,132.37Z"/><path class="cls-1" d="M44.4,115l.06,0h.13a1.13,1.13,0,0,0,.52-.11.68.68,0,0,0,.27-.5c0-.1,0-.21.07-.31s0-.23,0-.35a.92.92,0,0,0,0-.33.45.45,0,0,0-.39-.3.35.35,0,0,0-.36.2.42.42,0,0,0,0,.31v.13c0,.21-.06.41-.08.62h0v0l0,0-.19.12h0a4.1,4.1,0,0,1-.49.06h0l.28.25A1.09,1.09,0,0,0,44.4,115Z"/><path class="cls-1" d="M45.38,114.38h0v0Z"/><path class="cls-1" d="M41.42,117.25a.78.78,0,0,0,.49-.1,2,2,0,0,0,.49-.37,1.51,1.51,0,0,0,.18-.26,1.06,1.06,0,0,0,.1-.3.26.26,0,0,0-.25-.29.26.26,0,0,0-.26.26h0v0l0,0,0,0-.08.1c-.14.14-.28.26-.42.39l-.11.08,0,0-.06,0-.17,0-.16,0h-.16a1.2,1.2,0,0,0,.44.25Z"/><path class="cls-1" d="M38,118.55a.6.6,0,0,0,.19.06h.1a1.12,1.12,0,0,0,.59-.17,1.32,1.32,0,0,0,.22-.18l.09-.12a.48.48,0,0,0,.05-.17.28.28,0,0,0-.14-.29.29.29,0,0,0-.35,0l-.11.13h0l-.12.1-.17.12-.1,0-.09,0-.08,0H38l-.08,0h0l-.15-.07h0l-.13-.07h0a1.18,1.18,0,0,0,.21.4A.75.75,0,0,0,38,118.55Z"/><path class="cls-1" d="M38.69,114.86l0,0h0l-.06.07-.06.06-.09.06a.13.13,0,0,0-.08.08.43.43,0,0,0,.07.33.78.78,0,0,0,.49.29h0a.89.89,0,0,0,.72-.24.62.62,0,1,0-1-.7Z"/><path class="cls-1" d="M41.61,113.81a1.39,1.39,0,0,0,.19.06h.05a.71.71,0,0,0,.29,0,.43.43,0,0,0,.16,0,.51.51,0,0,0,.16-.09.75.75,0,0,0,.29-.62.55.55,0,0,0,0-.18.47.47,0,0,0-.07-.12l0,0a.13.13,0,0,0-.06,0h-.08a.19.19,0,0,0,0,.07.31.31,0,0,0,0,.08c0,.07,0,.14,0,.21v.06h0s0,0,0,.06,0,0,0,.06a.93.93,0,0,0-.05.1l0,.05,0,0-.07.06a.18.18,0,0,1-.07,0l-.08,0,0,0-.11,0h-.27l-.17,0-.25-.08h0l-.22-.09h0l.32.23Z"/><path class="cls-1" d="M42.62,111l.15,0a1.27,1.27,0,0,0,.51-.08,1,1,0,0,0,.22-.14.3.3,0,0,0,.1-.19c0-.1-.06-.22-.18-.21a.23.23,0,0,0-.17.12h0l0,0,0,0-.08.06-.14.07-.22.08-.23,0-.23,0h0a1.57,1.57,0,0,0,.23.09Z"/><path class="cls-1" d="M39,112.9h0a.58.58,0,0,0,.15.25.76.76,0,0,0,.37.18h.08a1,1,0,0,0,.52-.09,1.11,1.11,0,0,0,.46-.45.51.51,0,0,0-.23-.73.5.5,0,0,0-.68.32v0l0,0-.1.1-.17.12C39.19,112.76,39.06,112.82,39,112.9Z"/><path class="cls-1" d="M36.13,116.4a.89.89,0,0,0,.55-.1A1.14,1.14,0,0,0,37,116l.15-.18a1.63,1.63,0,0,0,.09-.19c0-.15,0-.44-.21-.44a.34.34,0,0,0-.19,0,.41.41,0,0,0-.11.07.57.57,0,0,0-.12.15l-.11.12-.09.09-.14.1-.11.06-.07,0-.09,0h-.14l-.09,0h0l-.15-.07h0l0,0h0a.68.68,0,0,0,.27.51Z"/><path class="cls-1" d="M36.54,113.62h.22a.38.38,0,0,0,.23-.13.26.26,0,0,0,0-.29.29.29,0,0,0-.25-.14.69.69,0,0,0-.29.13,1.24,1.24,0,0,0-.22.18l-.06,0h0a.42.42,0,0,0,.28.19Z"/><path class="cls-1" d="M38.16,112.05h0a.61.61,0,0,0,.19,0l.27-.08a1.26,1.26,0,0,0,.63-.43c.11-.16.24-.41.08-.57a.11.11,0,0,0-.11,0,.36.36,0,0,0-.21.21l0,0-.06.07,0,0a1.37,1.37,0,0,1-.2.13c-.1.06-.22.12-.32.19a1.08,1.08,0,0,0-.24.18h0l-.08,0h0A.25.25,0,0,0,38.16,112.05Z"/><path class="cls-1" d="M35.19,117.2a.33.33,0,0,0,.14,0,.73.73,0,0,0,.36,0,.83.83,0,0,0,.22-.08.41.41,0,0,0,.19-.2.39.39,0,0,0,0-.43.37.37,0,0,0-.4-.15.48.48,0,0,0-.17,0l-.13.08-.14.07-.08,0-.08,0h0a1.29,1.29,0,0,1-.28,0h0a.82.82,0,0,0,.09.35A.57.57,0,0,0,35.19,117.2Z"/><path class="cls-1" d="M19.23,108.61h0Z"/><path class="cls-1" d="M62.55,104.72h0l0,0Z"/><path class="cls-1" d="M66.08,100.37v.06Z"/><path class="cls-1" d="M50.52,137.21a.1.1,0,0,1-.05,0,3.5,3.5,0,0,1-.3-.24l-.16-.16-.34-.31-.36-.32-.14-.12-.22-.2h0l0,0h0l-.06-.09h0a1.76,1.76,0,0,0-.14-.23l-.19-.27-.24-.36-.7-1h0c.28.47.54.94.82,1.41l.21.36a2.75,2.75,0,0,0,.17.29l.12.12.08.07.58.53L50,137a.39.39,0,0,1,.1.08l.14.12.07.06.07,0,.17.08.16.08h0a.09.09,0,0,0,.09,0,.08.08,0,0,0-.05-.11Z"/><polygon class="cls-1" points="9.29 155.74 9.29 155.74 9.29 155.74 9.29 155.74"/><path class="cls-1" d="M56.16,168.87v0l0,0Z"/></g></g></svg>