<svg xmlns="http://www.w3.org/2000/svg" xmlns:xlink="http://www.w3.org/1999/xlink" viewBox="0 0 199.04 169.42"><defs><style>.cls-1{fill:#f0e4d6;}.cls-2{fill:#fff;}.cls-3{fill:#2a443e;}.cls-4{fill:#ce4d35;}.cls-5{fill:#b23e2f;}.cls-6{fill:#ca906a;}.cls-7{fill:#c47c8a;}.cls-8{fill:#996572;}.cls-9{fill:#e0d1c3;}.cls-10{fill:#588f83;}.cls-11{fill:#3a6b5f;}.cls-12{fill:#ef7f9f;}.cls-13,.cls-15,.cls-18,.cls-19{fill:none;}.cls-13,.cls-19{stroke:#2a443e;}.cls-13,.cls-18{stroke-linecap:round;stroke-linejoin:round;}.cls-13,.cls-18,.cls-19{stroke-width:2px;}.cls-14{fill:#acb9a2;}.cls-14,.cls-16{opacity:0.5;}.cls-15,.cls-18{stroke:#acb9a2;}.cls-15,.cls-19{stroke-miterlimit:10;}.cls-17{fill:url(#Degradado_sin_nombre_20);}.cls-20{fill:#df9f70;}</style><linearGradient id="Degradado_sin_nombre_20" x1="91.72" y1="107.13" x2="110.94" y2="70.13" gradientTransform="matrix(-0.98, -0.2, -0.2, 0.98, 201.81, 39.05)" gradientUnits="userSpaceOnUse"><stop offset="0" stop-color="#fff"/><stop offset="1" stop-color="#fff" stop-opacity="0"/></linearGradient></defs><title>Recurso 2</title><g id="Capa_2" data-name="Capa 2"><g id="OBJECTS"><rect class="cls-1" width="199.03" height="162.94"/><rect class="cls-2" x="17.4" width="0.47" height="162.94"/><rect class="cls-2" x="35.59" width="0.47" height="162.94"/><rect class="cls-2" x="53.78" width="0.48" height="162.94"/><rect class="cls-2" x="71.99" width="0.47" height="162.94"/><rect class="cls-2" x="90.18" width="0.48" height="162.94"/><rect class="cls-2" x="108.38" width="0.47" height="162.94"/><rect class="cls-2" x="126.57" width="0.47" height="162.94"/><rect class="cls-2" x="144.76" width="0.48" height="162.94"/><rect class="cls-2" x="162.97" width="0.47" height="162.94"/><rect class="cls-2" x="181.16" width="0.48" height="162.94"/><rect class="cls-2" y="5.23" width="199.03" height="0.47"/><rect class="cls-2" y="23.42" width="199.03" height="0.48"/><rect class="cls-2" y="41.62" width="199.03" height="0.47"/><rect class="cls-2" y="59.81" width="199.03" height="0.47"/><rect class="cls-2" y="78.02" width="199.03" height="0.47"/><rect class="cls-2" y="96.21" width="199.03" height="0.47"/><rect class="cls-2" y="114.4" width="199.03" height="0.48"/><rect class="cls-2" y="132.6" width="199.03" height="0.47"/><rect class="cls-2" y="150.79" width="199.03" height="0.47"/><path class="cls-3" d="M139.75,72.36a.67.67,0,0,1-.62.45l-4.1.07a46.45,46.45,0,0,0,.14-9,.22.22,0,0,0-.43,0A55.71,55.71,0,0,1,133,72.91l-1.08,0a40.93,40.93,0,0,0,.23-4.6c0-.29-.19-.28-.22,0a38.26,38.26,0,0,1-.89,4.61l-6.93.09c.43-2.83.65-5.69.85-8.47,0-.3-.19-.3-.22,0A73.74,73.74,0,0,1,123.18,73c-11.44.12-22.91.17-34.36,0,0-1.48-.09-3-.06-4.42,0-.13-.16-.12-.18,0-.17,1.45-.43,2.94-.61,4.42L86.1,73c0-.32,0-.64,0-1,0-2.37.53-4.66.34-7,0-.1-.13-.1-.14,0-.29,2.74-1,5.33-1.44,8L80.8,73a.61.61,0,0,1-.61-.58c.22-6.69-.78-15.23,3.14-21.2A20.71,20.71,0,0,1,90.09,45c4.12-2.55-2.5-17.47,10.25-29.72a12.35,12.35,0,0,1,8.51-3.48c14.59,0,23,12.93,23.33,22.27a29,29,0,0,1-1.29,9.38c-1.87,6.25,4.7,9.91,6.5,11.64C142.28,59.71,141.73,66.6,139.75,72.36Z"/><path class="cls-3" d="M140.55,57.9c-2.46-4.59-8.37-6.58-8.45-12.32,0-2.56.4-5.08.26-7.65a32.29,32.29,0,0,0-1.08-6.84,34.17,34.17,0,0,0-6.71-12.79s0,0,0,0a35.21,35.21,0,0,1,6.5,14.17,35.73,35.73,0,0,1,.78,7.58c0,2.36-.6,4.82-.18,7.16.63,3.57,3.82,5.07,6.12,7.42a16.6,16.6,0,0,1,4,15.15c0,.12.14.17.17,0A16.75,16.75,0,0,0,140.55,57.9Z"/><path class="cls-3" d="M96.75,20.07a29.53,29.53,0,0,0-5.48,12.67c-.42,2.35-.51,4.75-1,7.09A13.56,13.56,0,0,1,86,47.24c-6.89,6.68-8.69,15.85-7.29,25.16,0,.21.4.16.38-.05-.51-5.28-.6-10.59,1.2-15.66a21,21,0,0,1,4.1-7.08c1.42-1.57,3.21-2.8,4.46-4.54,2.18-3.07,2.21-7,2.67-10.58a37.63,37.63,0,0,1,5.22-14.4S96.76,20.06,96.75,20.07Z"/><path class="cls-1" d="M23.89,37.22l2-.67S35,38.6,38.08,43.84c0,0,6.72-5.17,22.07-2.69l2,1.7-25,6.71Z"/><path class="cls-4" d="M45.45,78.16,37.61,45.23s16.48-4.17,25-3.15l8,34.68A227.88,227.88,0,0,0,45.45,78.16Z"/><path class="cls-5" d="M45.45,78.16s-3.84-4.53-11.85-7.31l-11-34a95.29,95.29,0,0,1,15,8.39Z"/><path class="cls-6" d="M104,88.5c-.45.45-.92,1-1.44,1.49C94.18,98.77,78.13,118.08,70,113.77c-8.57-4.55-23.7-27.38-26-32.06s3.31-9.36,6.8-7.89S70.11,88.38,72.34,89.51c1,.48,5.15-4,11.73-9.89l1.63-1.45C92.89,71.8,101,65.09,106.45,64.65a6.25,6.25,0,0,1,1.71.09C114.9,66.18,115.63,76.48,104,88.5Z"/><path class="cls-7" d="M104,88.5c-.45.45-.92,1-1.44,1.49a27.17,27.17,0,0,0-4.67-4.91c-4.42-3.57-9.75-4.57-13.81-5.46l1.63-1.45C92.89,71.8,101,65.09,106.45,64.65a6.25,6.25,0,0,1,1.71.09C114.9,66.18,115.63,76.48,104,88.5Z"/><path class="cls-8" d="M73.64,110.14a1.8,1.8,0,0,0-2.57-.27,1.38,1.38,0,0,0,.39,2.27c.73.32,1.64-.48,1.09-1.24-.09-.12-.26,0-.2.17.21.5-.46.72-.77.45a.78.78,0,0,1-.2-.87.92.92,0,0,1,1.12-.48,1.37,1.37,0,0,1,.94.93,1.82,1.82,0,0,1-.35,1.4c-.06.1.06.23.15.18A1.82,1.82,0,0,0,73.64,110.14Z"/><path class="cls-6" d="M54.69,77.05,50.35,72s-1.61-5.26-3.66-6.53S42.55,56,39.53,56.69,34.39,66.76,35.37,70s6.18,7,6.18,7l3.78,7.21S53.49,81.9,54.69,77.05Z"/><path class="cls-1" d="M104,88.5c-.91,0-3.24-9.75-15.65-13.24-1.15-.32,12.83-11.55,18.92-12.36s8.57,4.94,7.28,10.84S105.25,88.54,104,88.5Z"/><path class="cls-4" d="M168.16,163H96.79a145.28,145.28,0,0,1,11.94-32.62l34.87-9.3S163.56,134.53,168.16,163Z"/><path class="cls-5" d="M126.59,163h-1.35c-.37-3.1-.52-6.47-.67-9.87-4.82-.43-9.1-3.43-12.54-6.6-.26-.25.12-.62.38-.4,3.78,3.18,8.1,4.41,12.62,6.05a.46.46,0,0,1,.18.13.25.25,0,0,1,.15.19A64.12,64.12,0,0,1,126.59,163Z"/><path class="cls-1" d="M110.65,61.21c-5.23,1.49-8.55,7-11,12.56s-8,17-7.38,25.28c.46,6.44,10,12.42,10,12.42s4.38,15.63,6.46,18.88c3.13,4.88,23.75,10.5,35.36-8.1,1.19-1.92-1-38.12-7.72-50.12C131.08,62.66,123.08,57.69,110.65,61.21Z"/><path class="cls-9" d="M125.91,106.31c-3.52,1.58-6.32,3.8-10.37,4-3.5.13-6.86-1.07-10.07-2.32-.14-.06-.22.16-.1.24a17.87,17.87,0,0,0,10.65,3c3.94-.25,7-2.39,10-4.66C126.2,106.44,126.08,106.23,125.91,106.31Z"/><path class="cls-9" d="M108.27,110.25a6.31,6.31,0,0,0-5.41-.35.14.14,0,0,0,.06.25,17.18,17.18,0,0,1,2.48-.13,13.08,13.08,0,0,1,2.69.67A.24.24,0,0,0,108.27,110.25Z"/><path class="cls-9" d="M124,66.52a19.25,19.25,0,0,1-8.42,6.29c-4.29,1.53-10,.71-10.1-5,0-.07-.12-.07-.12,0a6.08,6.08,0,0,0,6.78,6.61c4.73-.42,9.47-3.9,12.06-7.74C124.31,66.55,124.12,66.41,124,66.52Z"/><path class="cls-10" d="M95.76,163h67.38s-15.65-34-18.75-37.25a4.78,4.78,0,0,1-.59-.87h0A3.23,3.23,0,0,1,147,121c.77.25-1.71-4.21-2-4.45s-4,.4-4.72-2.16a.17.17,0,0,1,0-.05c-2.8-10.24-5.77-24.18-6.82-28.5-2.08-8.57-4.66-17.78-10.78-25.8-2.13-2.81-9.85-5.33-16.27,1.53-3.9,4.18-17.68,29.33-14.58,38.09s9.54,11.59,9.75,12.45,5,15,4.83,19.25S96.62,153.81,95.76,163Zm5.41-83.06c-.6-.94,6.44-16.92,9.48-18.71,2.09-1.22,8.71-1.48,9.88-.26s1.06,17.6-.63,18.25S101.78,80.87,101.17,79.92Z"/><path class="cls-11" d="M125.91,106.31c-3.52,1.58-6.32,3.8-10.37,4-3.5.13-6.86-1.07-10.07-2.32-.14-.06-.22.16-.1.24a17.87,17.87,0,0,0,10.65,3c3.94-.25,7-2.39,10-4.66C126.2,106.44,126.08,106.23,125.91,106.31Z"/><path class="cls-11" d="M108.27,110.25a6.31,6.31,0,0,0-5.41-.35.14.14,0,0,0,.06.25,17.18,17.18,0,0,1,2.48-.13,13.08,13.08,0,0,1,2.69.67A.24.24,0,0,0,108.27,110.25Z"/><path class="cls-6" d="M108.75,67.22s1.14,3.13,4,2.65c5-.84,7.91-6.11,8.12-7.35a69.06,69.06,0,0,0-1-9.29c-.08-.43-.15-.85-.23-1.28s-.15-.84-.24-1.25-.21-1.07-.33-1.61c-.84-4-1.59-7.46-1.59-7.46l-1.69,1.14-11.66,8.51,2.91,10.09.17.62.06.2.89,3v0Z"/><path class="cls-8" d="M107.24,62a11,11,0,0,0,5.2-.69c3.79-1.44,6-4.56,7.46-8.07-.08-.43-.15-.85-.23-1.28s-.15-.84-.24-1.25-.21-1.07-.33-1.61c-.84-4-1.59-7.46-1.59-7.46l-1.69,1.14-11.66,8.51,2.91,10.09Z"/><path class="cls-6" d="M89.74,36.58c.4,18.59,10.84,19.39,14,19.85,3.6.53,17.61-.32,19.13-18.86s-7.26-24.22-15.6-24.47S89.33,18,89.74,36.58Z"/><path class="cls-3" d="M103.64,36.65s.1.06.09.12c-.14,1.26-.08,2.72,1,3.23,0,0,0,.08,0,.07C103.36,39.76,103.31,37.82,103.64,36.65Z"/><path class="cls-3" d="M104.87,35.41c2,0,1.89,4.09,0,4.09S103.16,35.41,104.87,35.41Z"/><path class="cls-3" d="M105.49,35.57c.35.16.73.48,1.13.45s.74-.46,1-.88c0,0,.07,0,.07,0a1.36,1.36,0,0,1-.78,1.71c-.68.2-1.28-.35-1.57-1C105.26,35.72,105.34,35.5,105.49,35.57Z"/><path class="cls-3" d="M95.22,36.17c0-.05-.1.07-.09.12.12,1.26,0,2.72-1.08,3.21,0,0,0,.08,0,.07C95.45,39.29,95.53,37.35,95.22,36.17Z"/><path class="cls-3" d="M94,34.92c-2,0-2,4.06-.06,4.08S95.72,34.94,94,34.92Z"/><path class="cls-3" d="M93.35,35.09c-.35.19-.69.54-1.09.56s-.78-.41-1.05-.81c0,0-.06,0-.07,0-.06.72.17,1.48.93,1.64s1.24-.46,1.47-1.17C93.59,35.22,93.48,35,93.35,35.09Z"/><path class="cls-8" d="M104,46c-.28.32-.54.76-1,.84a3.32,3.32,0,0,1-1.39-.18,0,0,0,0,0,0,.07,1.7,1.7,0,0,0,1.66.53,1.35,1.35,0,0,0,.88-1.22C104.18,46,104.08,46,104,46Z"/><path class="cls-3" d="M92.78,31.48A10.91,10.91,0,0,0,94,31.16a2,2,0,0,0,1.21-.56.65.65,0,0,0,0-.8,1.62,1.62,0,0,0-1.63-.32,2.33,2.33,0,0,0-1.47.9A.71.71,0,0,0,92.78,31.48Z"/><path class="cls-3" d="M106.67,32.07c-.43-.08-.82-.22-1.24-.34a2,2,0,0,1-1.2-.57.66.66,0,0,1,0-.81,1.67,1.67,0,0,1,1.64-.3,2.42,2.42,0,0,1,1.46.93A.71.71,0,0,1,106.67,32.07Z"/><path class="cls-3" d="M99,44.09a5.24,5.24,0,0,0,2,1.7,2.32,2.32,0,0,0,1.41.14c1-.22,1.1-1.16.95-2a6,6,0,0,0-.41-1.25A6.7,6.7,0,0,1,99,44.09Z"/><path class="cls-12" d="M101,45.79a2.32,2.32,0,0,0,1.41.14c1-.22,1.1-1.16.95-2A2.41,2.41,0,0,0,101,45.79Z"/><path class="cls-8" d="M98.55,41.67s-.18,1.9-.14,2.79c0,.08.22.11.52.12,0,0,0,0,0,0a4.24,4.24,0,0,0,4-1.76c.06-.09-.06-.17-.14-.12A6.41,6.41,0,0,1,99.06,44c-.08-.25.42-3.25.27-3.25a8,8,0,0,0-2,.54c.26-4,1.16-7.86,1.36-11.82,0-.14-.2-.18-.23-.05a64.66,64.66,0,0,0-2,12.67C96.4,42.58,98.2,41.84,98.55,41.67Z"/><path class="cls-3" d="M122.23,37.65c-2.07,0-7.79-5.37-8.54-15.33,0,0,1.3,8.9,2,10.17s-3.2-3-3.92-11a32.52,32.52,0,0,1-8,4.77c-3.74,1.29-6.07,1.39-6.35,1.13s5.2-2.35,6.61-4.18c0,0-9.84,5.29-14.47,5.92-.54.07-1.84-11,5.09-16.1s18.64-.72,21.88,2.06c0,0,3.63.3,7.86,5.4S124.47,37.66,122.23,37.65Z"/><path class="cls-1" d="M104.16,43a5.4,5.4,0,0,1-4.45-6.21h0A5.4,5.4,0,1,1,105.5,43,5.5,5.5,0,0,1,104.16,43Zm-3.74-6.09A4.68,4.68,0,1,0,105.8,33a4.54,4.54,0,0,0-1.16,0A4.7,4.7,0,0,0,100.42,36.89Z"/><path class="cls-1" d="M92.76,42.59c-2.22-.07-4-2.55-3.85-5.53a6.38,6.38,0,0,1,1.26-3.73,3.54,3.54,0,0,1,2.93-1.54,3.59,3.59,0,0,1,2.82,1.72,6.44,6.44,0,0,1,1,3.81c-.09,2.81-1.78,5.08-3.84,5.26Zm-2-8.82a5.7,5.7,0,0,0-1.11,3.32c-.08,2.58,1.33,4.72,3.15,4.78s3.36-2,3.45-4.58a5.79,5.79,0,0,0-.9-3.38,2.92,2.92,0,0,0-2.26-1.4H92.8A3,3,0,0,0,90.74,33.77Z"/><path class="cls-1" d="M99.87,37.4l.48-.54c-.8-.71-2.66-1.69-4-.32l.51.5C98.06,35.82,99.8,37.34,99.87,37.4Z"/><path class="cls-1" d="M124.46,38l.59-.42c-.2-.28-2-2.68-3.6-2.71s-11,2.25-11.38,2.34l.17.7c2.71-.65,10-2.34,11.2-2.32S124,37.37,124.46,38Z"/><path class="cls-6" d="M119.92,39.84s3.41-6.22,6.18-5.06.65,9.85-2.3,11.33a3.14,3.14,0,0,1-4.37-1.23Z"/><path class="cls-8" d="M125.43,37.26s.07.05,0,.08c-2.06,1.1-3,3.23-3.55,5.39a1.74,1.74,0,0,1,2.53-.76.07.07,0,0,1,0,.12,1.93,1.93,0,0,0-2,.91,9.08,9.08,0,0,0-.83,1.82c-.08.2-.44.14-.39-.09l0,0C120.79,41.93,122.51,37.85,125.43,37.26Z"/><path class="cls-6" d="M173.32,110.45c-2.12,7.48-18.94-1.82-22.74-5.89-4.47-4.79-12.92-12.13-18.23-18a38.68,38.68,0,0,1-3.56-4.41c-3.87-6-6.58-14.73-2-17.67,1.81-1.17,6,.54,8.36,1.75,5.87,2.92,12.18,7.77,18,13.24C165.12,90.94,174.83,105.13,173.32,110.45Z"/><path class="cls-7" d="M153.05,79.52a41,41,0,0,0-20.7,7.09,38.68,38.68,0,0,1-3.56-4.41c-3.87-6-6.58-14.73-2-17.67,1.81-1.17,6,.54,8.36,1.75C141,69.2,147.28,74.05,153.05,79.52Z"/><path class="cls-1" d="M130.43,85.88c.87,0,5.39-8.32,17.21-11.65,1.1-.31-9.51-9.32-18-11.78-6.89-2-6.41,4-5.74,9.67C124.71,79.16,129.22,85.92,130.43,85.88Z"/><path class="cls-6" d="M151.58,116.28c-7.72-2.53-16.18-6.74-23.25-10.21-3.6-1.76-1.31-11.18,4.21-11.09,13.6.22,27-.58,35,6.8,4.72,4.35,6.64,5.68,5.62,9.56C171.41,118,163.93,120.33,151.58,116.28Z"/><path class="cls-6" d="M139.61,95.26l-10.89-1a26.09,26.09,0,0,0-9.13-2.69c-4.6-.29-10.94,2.5-11.18,6s1.44,2.35,3.41,2.52,6.26,3.33,9.4,3.27c0,0,1,.41,3.84,1.42s12,4.87,12,4.87S143.84,103.52,139.61,95.26Z"/><path class="cls-8" d="M170.07,110.42a1.8,1.8,0,0,0-2.58-.26,1.37,1.37,0,0,0,.4,2.26c.73.33,1.64-.48,1.09-1.24-.09-.11-.26,0-.2.17.21.5-.46.72-.77.45a.8.8,0,0,1-.21-.87.92.92,0,0,1,1.13-.47,1.35,1.35,0,0,1,.94.93,1.79,1.79,0,0,1-.36,1.4c0,.1.07.23.16.17A1.82,1.82,0,0,0,170.07,110.42Z"/><path class="cls-8" d="M170.05,104.18a24,24,0,0,0-11.68-7.62C153,95.09,147,95,141.4,95a0,0,0,1,0,0,.08c5.36.46,10.72.65,16,1.93,5,1.22,8.55,4.24,12.49,7.35A.13.13,0,0,0,170.05,104.18Z"/><path class="cls-13" d="M104.16,98a25.43,25.43,0,0,1,4.23-.91c1,0,8.46,5.08,8.73,5.7s-.17,3.48-.17,3.48"/><path class="cls-14" d="M134.34,119.07c-3.26,4.76-17,1-30.74-8.39S81.41,89.81,84.67,85.05s17-1,30.74,8.39S137.61,114.31,134.34,119.07Z"/><path class="cls-15" d="M134.34,119.07c-3.26,4.76-17,1-30.74-8.39S81.41,89.81,84.67,85.05s17-1,30.74,8.39S137.61,114.31,134.34,119.07Z"/><g class="cls-16"><path class="cls-17" d="M67.64,74.27c.48,3.94,3.34,7,6.64,9,1.92,1.15,4.38,1.53,6.13,2.93a6.21,6.21,0,0,1,2,5.57c-.52,4.49-4.62,7.75-7.68,10.65-4.72,4.46-10.66,11.43-6.84,18.32,1.79,3.22,5.3,5.34,8.63,6.66a36.12,36.12,0,0,0,11.69,2.27c4.6.22,9.75-.43,12.69,3.93,2.63,3.89,2.38,6.73,1,10.94,0,0,1.18.3,1.27.18a37.67,37.67,0,0,0,3.9-7.37c1.8-4.22,2.27-8.66-1.39-12.33-2.14-2.15-5-3.34-7.46-5.08-3.17-2.25-4.75-5.37-3.54-9.27s4.43-7,6.39-10.63a11,11,0,0,0,.2-10.55,17.24,17.24,0,0,0-6.89-7.24c-3.35-1.92-7-2.27-10.76-2.37-4.28-.12-9.43-.37-12.07-4.31S69.91,66.74,71,62.57a.13.13,0,0,0-.25-.09C69.06,66.16,67.13,70.1,67.64,74.27Z"/></g><path class="cls-3" d="M127.11,132.81s-1.67,24.43-9.46,24.43H76.37c-7.8,0-9.47-24.43-9.47-24.43Z"/><line class="cls-18" x1="73.63" y1="138.53" x2="93.56" y2="138.53"/><rect class="cls-6" x="74.31" y="136.21" width="15.47" height="4.64" rx="2.05"/><polyline class="cls-19" points="65.9 164 69.33 157.95 124.68 157.95 128.12 164"/><polyline class="cls-19" points="75.75 164 78.1 157.95 115.91 157.95 118.26 164"/><polyline class="cls-19" points="3.68 164 7.12 157.95 62.46 157.95 65.9 164"/><polyline class="cls-19" points="13.54 164 15.88 157.95 53.7 157.95 56.04 164"/><rect class="cls-6" y="162.97" width="199.03" height="6.45"/><polygon class="cls-3" points="52.42 151.24 73.63 152.56 73.63 148.09 52.42 148.04 52.42 151.24"/><path class="cls-4" d="M10.84,148.05s1.62,8.94,4.9,8.94h35c3.28,0,4.9-8.94,4.9-8.94Z"/><path class="cls-20" d="M193.14,140.65v19.76a2.56,2.56,0,0,1-2.56,2.56h-33.4a2.55,2.55,0,0,1-2.55-2.55V140.65a2.55,2.55,0,0,1,2.55-2.55h1.54v-1.87h15.17v0l15.15,0v1.87h1.54A2.56,2.56,0,0,1,193.14,140.65Z"/><rect class="cls-4" x="157.64" y="132.81" width="32.45" height="3.33"/><rect class="cls-1" x="154.63" y="144.84" width="38.51" height="12.48"/><path class="cls-11" d="M152.78,145.08v15.83c0,1.14-.42,2.06-.93,2.06h-12.2c-.52,0-.93-.91-.93-2.05V145.08c0-1.14.41-2.05.93-2.05h.56v-1.5h11.07V143h.57C152.36,143,152.78,143.94,152.78,145.08Z"/><rect class="cls-4" x="139.82" y="138.79" width="11.85" height="2.67"/><rect class="cls-1" x="138.72" y="148.43" width="14.07" height="10.01"/></g></g></svg>