<svg xmlns="http://www.w3.org/2000/svg" viewBox="0 0 283.57 283.57"><title>Recurso 5</title><g id="Capa_2" data-name="Capa 2"><g id="Capa_1-2" data-name="Capa 1"><path d="M141.79,283.57C63.6,283.57,0,220,0,141.79S63.6,0,141.79,0,283.57,63.6,283.57,141.79,220,283.57,141.79,283.57Zm0-272.57A130.94,130.94,0,0,0,11,141.79c0,72.11,58.67,130.78,130.79,130.78S272.57,213.9,272.57,141.79,213.9,11,141.79,11Z"/><path d="M97,130.61h-8v50.25h9.75v2.85H50.09v-2.85h9.75V81.56H50.09V78.71h45.3q19.49,0,27.67,2t11.48,4.88q7.2,5.85,7.2,18.6t-6.3,18.23q-6.3,5.48-19.2,6.52v.45q12.15,1.65,17,7.2t4.8,18.6v7.95q0,7.8.82,10.5a3.42,3.42,0,0,0,3.53,2.7,4.82,4.82,0,0,0,4.27-2.48q1.57-2.48,2.93-10.42l2.55.3q-1.67,12.75-5.78,17.1t-16.42,4.35q-12.31,0-17.48-5.78t-5.17-21.67V146.81q0-8.4-2.18-12.3T97,130.61Zm-8-49.05v46.2h4.8q8.55,0,12.67-5.25t4.13-17.1v-4.35q0-11.85-4-15.68T94,81.56Z"/><path d="M205.33,116.51q-5.55,0-9.75,7.2a33.35,33.35,0,0,0-4.2,17.1V181H202v2.7h-46.8V181h8.25V115h-8.25v-2.7h36.15v14.4a20.34,20.34,0,0,1,7.5-11.77,20.59,20.59,0,0,1,12.6-4.13q7.05,0,11.48,4T227.39,126q0,7.27-3.31,11.17T214,141.11q-6.83,0-10.05-4.5t-.83-12.45h5.4Q212.23,116.51,205.33,116.51Z"/><path d="M235.71,185.21q-6.53,0-9.75-3.83a13.92,13.92,0,0,1-3.22-9.3,13.29,13.29,0,0,1,3.37-9.22q3.38-3.75,9.53-3.75c4.09,0,7.35,1,9.75,3.15s3.6,5.25,3.6,9.45-1.13,7.5-3.38,9.9S240.06,185.21,235.71,185.21Z"/></g></g></svg>